<svg id="visual" viewBox="0 0 3000 1800" width="3000" height="1800" xmlns="http://www.w3.org/2000/svg" xmlns:xlink="http://www.w3.org/1999/xlink" version="1.1"><rect x="0" y="0" width="3000" height="1800" fill="#180830"></rect><path d="M0 954L188 954L188 963L375 963L375 1023L563 1023L563 993L750 993L750 976L938 976L938 1078L1125 1078L1125 995L1313 995L1313 994L1500 994L1500 1001L1688 1001L1688 784L1875 784L1875 844L2063 844L2063 883L2250 883L2250 781L2438 781L2438 816L2625 816L2625 759L2813 759L2813 1027L3000 1027L3000 1011L3000 1801L3000 1801L2813 1801L2813 1801L2625 1801L2625 1801L2438 1801L2438 1801L2250 1801L2250 1801L2063 1801L2063 1801L1875 1801L1875 1801L1688 1801L1688 1801L1500 1801L1500 1801L1313 1801L1313 1801L1125 1801L1125 1801L938 1801L938 1801L750 1801L750 1801L563 1801L563 1801L375 1801L375 1801L188 1801L188 1801L0 1801Z" fill="#ff0066"></path><path d="M0 1090L188 1090L188 1124L375 1124L375 943L563 943L563 1155L750 1155L750 1176L938 1176L938 1147L1125 1147L1125 888L1313 888L1313 1058L1500 1058L1500 1169L1688 1169L1688 1113L1875 1113L1875 1121L2063 1121L2063 998L2250 998L2250 882L2438 882L2438 1201L2625 1201L2625 1194L2813 1194L2813 916L3000 916L3000 1155L3000 1801L3000 1801L2813 1801L2813 1801L2625 1801L2625 1801L2438 1801L2438 1801L2250 1801L2250 1801L2063 1801L2063 1801L1875 1801L1875 1801L1688 1801L1688 1801L1500 1801L1500 1801L1313 1801L1313 1801L1125 1801L1125 1801L938 1801L938 1801L750 1801L750 1801L563 1801L563 1801L375 1801L375 1801L188 1801L188 1801L0 1801Z" fill="#ff5e83"></path><path d="M0 1210L188 1210L188 1137L375 1137L375 1054L563 1054L563 1298L750 1298L750 1132L938 1132L938 1135L1125 1135L1125 1073L1313 1073L1313 1220L1500 1220L1500 1252L1688 1252L1688 1233L1875 1233L1875 1071L2063 1071L2063 1089L2250 1089L2250 1066L2438 1066L2438 1233L2625 1233L2625 1102L2813 1102L2813 1064L3000 1064L3000 1327L3000 1801L3000 1801L2813 1801L2813 1801L2625 1801L2625 1801L2438 1801L2438 1801L2250 1801L2250 1801L2063 1801L2063 1801L1875 1801L1875 1801L1688 1801L1688 1801L1500 1801L1500 1801L1313 1801L1313 1801L1125 1801L1125 1801L938 1801L938 1801L750 1801L750 1801L563 1801L563 1801L375 1801L375 1801L188 1801L188 1801L0 1801Z" fill="#ff8ca0"></path><path d="M0 1268L188 1268L188 1369L375 1369L375 1441L563 1441L563 1215L750 1215L750 1314L938 1314L938 1374L1125 1374L1125 1343L1313 1343L1313 1349L1500 1349L1500 1420L1688 1420L1688 1274L1875 1274L1875 1282L2063 1282L2063 1276L2250 1276L2250 1325L2438 1325L2438 1452L2625 1452L2625 1398L2813 1398L2813 1343L3000 1343L3000 1376L3000 1801L3000 1801L2813 1801L2813 1801L2625 1801L2625 1801L2438 1801L2438 1801L2250 1801L2250 1801L2063 1801L2063 1801L1875 1801L1875 1801L1688 1801L1688 1801L1500 1801L1500 1801L1313 1801L1313 1801L1125 1801L1125 1801L938 1801L938 1801L750 1801L750 1801L563 1801L563 1801L375 1801L375 1801L188 1801L188 1801L0 1801Z" fill="#ffb3bf"></path><path d="M0 1461L188 1461L188 1418L375 1418L375 1454L563 1454L563 1558L750 1558L750 1446L938 1446L938 1460L1125 1460L1125 1561L1313 1561L1313 1505L1500 1505L1500 1500L1688 1500L1688 1554L1875 1554L1875 1475L2063 1475L2063 1537L2250 1537L2250 1556L2438 1556L2438 1406L2625 1406L2625 1401L2813 1401L2813 1453L3000 1453L3000 1382L3000 1801L3000 1801L2813 1801L2813 1801L2625 1801L2625 1801L2438 1801L2438 1801L2250 1801L2250 1801L2063 1801L2063 1801L1875 1801L1875 1801L1688 1801L1688 1801L1500 1801L1500 1801L1313 1801L1313 1801L1125 1801L1125 1801L938 1801L938 1801L750 1801L750 1801L563 1801L563 1801L375 1801L375 1801L188 1801L188 1801L0 1801Z" fill="#ffd9de"></path><path d="M0 1702L188 1702L188 1531L375 1531L375 1661L563 1661L563 1539L750 1539L750 1576L938 1576L938 1575L1125 1575L1125 1674L1313 1674L1313 1638L1500 1638L1500 1568L1688 1568L1688 1538L1875 1538L1875 1671L2063 1671L2063 1538L2250 1538L2250 1707L2438 1707L2438 1573L2625 1573L2625 1694L2813 1694L2813 1533L3000 1533L3000 1616L3000 1801L3000 1801L2813 1801L2813 1801L2625 1801L2625 1801L2438 1801L2438 1801L2250 1801L2250 1801L2063 1801L2063 1801L1875 1801L1875 1801L1688 1801L1688 1801L1500 1801L1500 1801L1313 1801L1313 1801L1125 1801L1125 1801L938 1801L938 1801L750 1801L750 1801L563 1801L563 1801L375 1801L375 1801L188 1801L188 1801L0 1801Z" fill="#ffffff"></path></svg>