<svg id="visual" viewBox="0 0 3000 1687" width="3000" height="1687" xmlns="http://www.w3.org/2000/svg" xmlns:xlink="http://www.w3.org/1999/xlink" version="1.1"><g stroke-width="1" stroke-linejoin="bevel"><path d="M1468 812.5L1301 683.9L1388 864.5Z" fill="#bc5874" stroke="#bc5874"></path><path d="M1301 683.9L1232 736.9L1388 864.5Z" fill="#d997a6" stroke="#d997a6"></path><path d="M1468 812.5L1531 708.9L1301 683.9Z" fill="#e2acb7" stroke="#e2acb7"></path><path d="M1204 885.5L1325 951.1L1388 864.5Z" fill="#b14164" stroke="#b14164"></path><path d="M1388 864.5L1535 1035.1L1468 812.5Z" fill="#a62755" stroke="#a62755"></path><path d="M1531 708.9L1394 556.3L1301 683.9Z" fill="#f1d5db" stroke="#f1d5db"></path><path d="M1165 547.3L1082 744.9L1232 736.9Z" fill="#c66d84" stroke="#c66d84"></path><path d="M1232 736.9L1204 885.5L1388 864.5Z" fill="#ffffff" stroke="#ffffff"></path><path d="M1531 708.9L1512 534.3L1394 556.3Z" fill="#d08295" stroke="#d08295"></path><path d="M1082 744.9L1101 792.5L1232 736.9Z" fill="#eac0c9" stroke="#eac0c9"></path><path d="M1232 736.9L1101 792.5L1204 885.5Z" fill="#bc5874" stroke="#bc5874"></path><path d="M1066 946.1L1170 955.1L1204 885.5Z" fill="#a62755" stroke="#a62755"></path><path d="M1204 885.5L1170 955.1L1325 951.1Z" fill="#b14164" stroke="#b14164"></path><path d="M1165 547.3L1232 736.9L1301 683.9Z" fill="#b14164" stroke="#b14164"></path><path d="M1321 438.8L1165 547.3L1394 556.3Z" fill="#bc5874" stroke="#bc5874"></path><path d="M1394 556.3L1165 547.3L1301 683.9Z" fill="#f1d5db" stroke="#f1d5db"></path><path d="M1688 878.5L1531 708.9L1468 812.5Z" fill="#f1d5db" stroke="#f1d5db"></path><path d="M1688 878.5L1689 730.9L1531 708.9Z" fill="#b14164" stroke="#b14164"></path><path d="M1531 708.9L1645 531.3L1512 534.3Z" fill="#eac0c9" stroke="#eac0c9"></path><path d="M1399 1097.7L1535 1035.1L1325 951.1Z" fill="#eac0c9" stroke="#eac0c9"></path><path d="M1325 951.1L1535 1035.1L1388 864.5Z" fill="#bc5874" stroke="#bc5874"></path><path d="M1536 451.8L1321 438.8L1394 556.3Z" fill="#f8eaed" stroke="#f8eaed"></path><path d="M1631 1005.1L1688 878.5L1468 812.5Z" fill="#ffffff" stroke="#ffffff"></path><path d="M1223 1103.7L1399 1097.7L1325 951.1Z" fill="#e2acb7" stroke="#e2acb7"></path><path d="M1645 531.3L1536 451.8L1512 534.3Z" fill="#f1d5db" stroke="#f1d5db"></path><path d="M1512 534.3L1536 451.8L1394 556.3Z" fill="#d08295" stroke="#d08295"></path><path d="M1689 730.9L1645 531.3L1531 708.9Z" fill="#d997a6" stroke="#d997a6"></path><path d="M1599 1105.7L1631 1005.1L1535 1035.1Z" fill="#c66d84" stroke="#c66d84"></path><path d="M1535 1035.1L1631 1005.1L1468 812.5Z" fill="#b14164" stroke="#b14164"></path><path d="M865 878.5L1066 946.1L1101 792.5Z" fill="#ffffff" stroke="#ffffff"></path><path d="M1101 792.5L1066 946.1L1204 885.5Z" fill="#ffffff" stroke="#ffffff"></path><path d="M1170 955.1L1223 1103.7L1325 951.1Z" fill="#bc5874" stroke="#bc5874"></path><path d="M1151 281.2L1240 420.8L1321 232.2Z" fill="#d08295" stroke="#d08295"></path><path d="M1321 438.8L1240 420.8L1165 547.3Z" fill="#f8eaed" stroke="#f8eaed"></path><path d="M1066 946.1L1223 1103.7L1170 955.1Z" fill="#a62755" stroke="#a62755"></path><path d="M1645 531.3L1623 442.8L1536 451.8Z" fill="#f1d5db" stroke="#f1d5db"></path><path d="M1536 451.8L1482 271.2L1321 438.8Z" fill="#d08295" stroke="#d08295"></path><path d="M1051 411.8L1012 566.3L1165 547.3Z" fill="#d08295" stroke="#d08295"></path><path d="M1165 547.3L1012 566.3L1082 744.9Z" fill="#f8eaed" stroke="#f8eaed"></path><path d="M1082 744.9L865 878.5L1101 792.5Z" fill="#e2acb7" stroke="#e2acb7"></path><path d="M1493 1174.7L1535 1035.1L1399 1097.7Z" fill="#eac0c9" stroke="#eac0c9"></path><path d="M1493 1174.7L1599 1105.7L1535 1035.1Z" fill="#d997a6" stroke="#d997a6"></path><path d="M1753 1019.1L1778 890.5L1688 878.5Z" fill="#eac0c9" stroke="#eac0c9"></path><path d="M1753 1019.1L1688 878.5L1631 1005.1Z" fill="#d08295" stroke="#d08295"></path><path d="M1688 878.5L1778 890.5L1689 730.9Z" fill="#b14164" stroke="#b14164"></path><path d="M1689 730.9L1801 594.3L1645 531.3Z" fill="#b14164" stroke="#b14164"></path><path d="M1645 531.3L1750 417.8L1623 442.8Z" fill="#d997a6" stroke="#d997a6"></path><path d="M1388 1242.3L1493 1174.7L1399 1097.7Z" fill="#b14164" stroke="#b14164"></path><path d="M1778 890.5L1825 745.9L1689 730.9Z" fill="#a62755" stroke="#a62755"></path><path d="M1825 745.9L1801 594.3L1689 730.9Z" fill="#ffffff" stroke="#ffffff"></path><path d="M1760 1098.7L1631 1005.1L1599 1105.7Z" fill="#f8eaed" stroke="#f8eaed"></path><path d="M1760 1098.7L1753 1019.1L1631 1005.1Z" fill="#b14164" stroke="#b14164"></path><path d="M1778 890.5L1921 798.5L1825 745.9Z" fill="#d08295" stroke="#d08295"></path><path d="M1240 420.8L1051 411.8L1165 547.3Z" fill="#c66d84" stroke="#c66d84"></path><path d="M1223 1103.7L1388 1242.3L1399 1097.7Z" fill="#d08295" stroke="#d08295"></path><path d="M1698 1225.3L1760 1098.7L1599 1105.7Z" fill="#ffffff" stroke="#ffffff"></path><path d="M1675 312.2L1536 451.8L1623 442.8Z" fill="#d08295" stroke="#d08295"></path><path d="M1675 312.2L1482 271.2L1536 451.8Z" fill="#f1d5db" stroke="#f1d5db"></path><path d="M1240 420.8L1151 281.2L1051 411.8Z" fill="#bc5874" stroke="#bc5874"></path><path d="M1801 594.3L1750 417.8L1645 531.3Z" fill="#f1d5db" stroke="#f1d5db"></path><path d="M941 459.8L911 552.3L1012 566.3Z" fill="#c66d84" stroke="#c66d84"></path><path d="M1012 566.3L857 657.9L1082 744.9Z" fill="#a62755" stroke="#a62755"></path><path d="M1698 1225.3L1599 1105.7L1493 1174.7Z" fill="#ffffff" stroke="#ffffff"></path><path d="M1937 1007.1L1921 798.5L1778 890.5Z" fill="#bc5874" stroke="#bc5874"></path><path d="M1066 946.1L998 1115.7L1223 1103.7Z" fill="#ffffff" stroke="#ffffff"></path><path d="M1223 1103.7L1229 1278.3L1388 1242.3Z" fill="#c66d84" stroke="#c66d84"></path><path d="M848 979.1L998 1115.7L1066 946.1Z" fill="#bc5874" stroke="#bc5874"></path><path d="M857 657.9L865 878.5L1082 744.9Z" fill="#d997a6" stroke="#d997a6"></path><path d="M1051 411.8L941 459.8L1012 566.3Z" fill="#d08295" stroke="#d08295"></path><path d="M1321 232.2L1240 420.8L1321 438.8Z" fill="#bc5874" stroke="#bc5874"></path><path d="M1051 411.8L885 257.2L941 459.8Z" fill="#d08295" stroke="#d08295"></path><path d="M770 735.9L857 657.9L710 528.3Z" fill="#b14164" stroke="#b14164"></path><path d="M911 552.3L857 657.9L1012 566.3Z" fill="#eac0c9" stroke="#eac0c9"></path><path d="M1482 271.2L1321 232.2L1321 438.8Z" fill="#a62755" stroke="#a62755"></path><path d="M1331 1391.8L1475 1286.3L1388 1242.3Z" fill="#b14164" stroke="#b14164"></path><path d="M1388 1242.3L1475 1286.3L1493 1174.7Z" fill="#d997a6" stroke="#d997a6"></path><path d="M1750 417.8L1675 312.2L1623 442.8Z" fill="#b14164" stroke="#b14164"></path><path d="M1482 271.2L1534 177.6L1321 232.2Z" fill="#a62755" stroke="#a62755"></path><path d="M1051 1306.3L1229 1278.3L1223 1103.7Z" fill="#bc5874" stroke="#bc5874"></path><path d="M1937 1007.1L1778 890.5L1753 1019.1Z" fill="#f8eaed" stroke="#f8eaed"></path><path d="M1825 745.9L1934 722.9L1801 594.3Z" fill="#bc5874" stroke="#bc5874"></path><path d="M1926 376.8L1765 332.2L1750 417.8Z" fill="#d997a6" stroke="#d997a6"></path><path d="M1921 798.5L1934 722.9L1825 745.9Z" fill="#ffffff" stroke="#ffffff"></path><path d="M1098 163.6L1071 283.2L1151 281.2Z" fill="#d997a6" stroke="#d997a6"></path><path d="M1151 281.2L1071 283.2L1051 411.8Z" fill="#f8eaed" stroke="#f8eaed"></path><path d="M1475 1286.3L1698 1225.3L1493 1174.7Z" fill="#eac0c9" stroke="#eac0c9"></path><path d="M1760 1098.7L1937 1007.1L1753 1019.1Z" fill="#c66d84" stroke="#c66d84"></path><path d="M702 973.1L848 979.1L865 878.5Z" fill="#b14164" stroke="#b14164"></path><path d="M865 878.5L848 979.1L1066 946.1Z" fill="#f8eaed" stroke="#f8eaed"></path><path d="M1926 376.8L1750 417.8L1801 594.3Z" fill="#bc5874" stroke="#bc5874"></path><path d="M1750 417.8L1765 332.2L1675 312.2Z" fill="#f8eaed" stroke="#f8eaed"></path><path d="M1675 312.2L1534 177.6L1482 271.2Z" fill="#d08295" stroke="#d08295"></path><path d="M1613 107.6L1534 177.6L1675 312.2Z" fill="#e2acb7" stroke="#e2acb7"></path><path d="M1154 105.6L1098 163.6L1151 281.2Z" fill="#d997a6" stroke="#d997a6"></path><path d="M710 528.3L857 657.9L911 552.3Z" fill="#f1d5db" stroke="#f1d5db"></path><path d="M857 657.9L770 735.9L865 878.5Z" fill="#d08295" stroke="#d08295"></path><path d="M848 979.1L910 1147.7L998 1115.7Z" fill="#f8eaed" stroke="#f8eaed"></path><path d="M1051 1306.3L1221 1364.8L1229 1278.3Z" fill="#d08295" stroke="#d08295"></path><path d="M1934 722.9L1953 565.3L1801 594.3Z" fill="#b14164" stroke="#b14164"></path><path d="M1967 1098.7L1937 1007.1L1760 1098.7Z" fill="#a62755" stroke="#a62755"></path><path d="M2099 855.5L2065 655.9L1934 722.9Z" fill="#d997a6" stroke="#d997a6"></path><path d="M1934 722.9L2065 655.9L1953 565.3Z" fill="#ffffff" stroke="#ffffff"></path><path d="M1051 1306.3L1223 1103.7L998 1115.7Z" fill="#bc5874" stroke="#bc5874"></path><path d="M1229 1278.3L1331 1391.8L1388 1242.3Z" fill="#f8eaed" stroke="#f8eaed"></path><path d="M1475 1286.3L1630 1447.8L1698 1225.3Z" fill="#d08295" stroke="#d08295"></path><path d="M1221 1364.8L1331 1391.8L1229 1278.3Z" fill="#d08295" stroke="#d08295"></path><path d="M910 1147.7L1051 1306.3L998 1115.7Z" fill="#bc5874" stroke="#bc5874"></path><path d="M1534 177.6L1317 114.6L1321 232.2Z" fill="#b14164" stroke="#b14164"></path><path d="M1154 105.6L1151 281.2L1321 232.2Z" fill="#bc5874" stroke="#bc5874"></path><path d="M1071 283.2L885 257.2L1051 411.8Z" fill="#e2acb7" stroke="#e2acb7"></path><path d="M760 377.8L710 528.3L911 552.3Z" fill="#d08295" stroke="#d08295"></path><path d="M1953 565.3L1926 376.8L1801 594.3Z" fill="#f1d5db" stroke="#f1d5db"></path><path d="M1759 149.6L1613 107.6L1675 312.2Z" fill="#e2acb7" stroke="#e2acb7"></path><path d="M639 833.5L703 849.5L770 735.9Z" fill="#c66d84" stroke="#c66d84"></path><path d="M770 735.9L703 849.5L865 878.5Z" fill="#ffffff" stroke="#ffffff"></path><path d="M848 979.1L709 1136.7L910 1147.7Z" fill="#d08295" stroke="#d08295"></path><path d="M920 1311.3L1057 1358.8L1051 1306.3Z" fill="#d997a6" stroke="#d997a6"></path><path d="M1051 1306.3L1057 1358.8L1221 1364.8Z" fill="#b14164" stroke="#b14164"></path><path d="M1381 1521.4L1467 1432.8L1331 1391.8Z" fill="#c66d84" stroke="#c66d84"></path><path d="M1482 1506.4L1467 1432.8L1381 1521.4Z" fill="#f8eaed" stroke="#f8eaed"></path><path d="M1331 1391.8L1467 1432.8L1475 1286.3Z" fill="#d08295" stroke="#d08295"></path><path d="M1787 1315.3L1760 1098.7L1698 1225.3Z" fill="#a62755" stroke="#a62755"></path><path d="M1975 1272.3L1967 1098.7L1760 1098.7Z" fill="#ffffff" stroke="#ffffff"></path><path d="M2099 855.5L1934 722.9L1921 798.5Z" fill="#f1d5db" stroke="#f1d5db"></path><path d="M1317 114.6L1154 105.6L1321 232.2Z" fill="#e2acb7" stroke="#e2acb7"></path><path d="M1630 1447.8L1787 1315.3L1698 1225.3Z" fill="#eac0c9" stroke="#eac0c9"></path><path d="M1759 149.6L1675 312.2L1765 332.2Z" fill="#b14164" stroke="#b14164"></path><path d="M1466 0L1375 0L1317 114.6Z" fill="#d997a6" stroke="#d997a6"></path><path d="M1317 114.6L1210 0L1154 105.6Z" fill="#ffffff" stroke="#ffffff"></path><path d="M2062 935.1L1921 798.5L1937 1007.1Z" fill="#a62755" stroke="#a62755"></path><path d="M1953 565.3L2056 427.8L1926 376.8Z" fill="#f8eaed" stroke="#f8eaed"></path><path d="M938 191.6L1071 283.2L1098 163.6Z" fill="#ffffff" stroke="#ffffff"></path><path d="M938 191.6L885 257.2L1071 283.2Z" fill="#f1d5db" stroke="#f1d5db"></path><path d="M760 377.8L911 552.3L941 459.8Z" fill="#bc5874" stroke="#bc5874"></path><path d="M703 849.5L702 973.1L865 878.5Z" fill="#a62755" stroke="#a62755"></path><path d="M910 1147.7L920 1311.3L1051 1306.3Z" fill="#ffffff" stroke="#ffffff"></path><path d="M1967 1098.7L2062 935.1L1937 1007.1Z" fill="#bc5874" stroke="#bc5874"></path><path d="M747 1265.3L920 1311.3L910 1147.7Z" fill="#d997a6" stroke="#d997a6"></path><path d="M1045 0L938 191.6L1098 163.6Z" fill="#c66d84" stroke="#c66d84"></path><path d="M1906 184.6L1759 149.6L1765 332.2Z" fill="#ffffff" stroke="#ffffff"></path><path d="M885 257.2L760 377.8L941 459.8Z" fill="#ffffff" stroke="#ffffff"></path><path d="M746 274.2L760 377.8L885 257.2Z" fill="#d997a6" stroke="#d997a6"></path><path d="M2062 935.1L2099 855.5L1921 798.5Z" fill="#bc5874" stroke="#bc5874"></path><path d="M1467 1432.8L1630 1447.8L1475 1286.3Z" fill="#a62755" stroke="#a62755"></path><path d="M581 690.9L639 833.5L770 735.9Z" fill="#bc5874" stroke="#bc5874"></path><path d="M703 849.5L646 970.1L702 973.1Z" fill="#a62755" stroke="#a62755"></path><path d="M1630 1447.8L1781 1395.8L1787 1315.3Z" fill="#e2acb7" stroke="#e2acb7"></path><path d="M1787 1315.3L1975 1272.3L1760 1098.7Z" fill="#b14164" stroke="#b14164"></path><path d="M1381 1521.4L1331 1391.8L1229 1542.4Z" fill="#ffffff" stroke="#ffffff"></path><path d="M1467 1432.8L1482 1506.4L1630 1447.8Z" fill="#ffffff" stroke="#ffffff"></path><path d="M1837 1580.4L1912 1369.8L1781 1395.8Z" fill="#f8eaed" stroke="#f8eaed"></path><path d="M2134 535.3L1953 565.3L2065 655.9Z" fill="#d997a6" stroke="#d997a6"></path><path d="M2134 535.3L2056 427.8L1953 565.3Z" fill="#e2acb7" stroke="#e2acb7"></path><path d="M1926 376.8L1906 184.6L1765 332.2Z" fill="#a62755" stroke="#a62755"></path><path d="M1466 0L1534 177.6L1613 107.6Z" fill="#bc5874" stroke="#bc5874"></path><path d="M1466 0L1317 114.6L1534 177.6Z" fill="#eac0c9" stroke="#eac0c9"></path><path d="M1154 105.6L1045 0L1098 163.6Z" fill="#f1d5db" stroke="#f1d5db"></path><path d="M639 833.5L646 970.1L703 849.5Z" fill="#e2acb7" stroke="#e2acb7"></path><path d="M702 973.1L709 1136.7L848 979.1Z" fill="#f8eaed" stroke="#f8eaed"></path><path d="M1229 1542.4L1331 1391.8L1221 1364.8Z" fill="#f1d5db" stroke="#f1d5db"></path><path d="M1229 1542.4L1221 1364.8L1070 1514.4Z" fill="#eac0c9" stroke="#eac0c9"></path><path d="M1682 0L1466 0L1613 107.6Z" fill="#b14164" stroke="#b14164"></path><path d="M646 970.1L709 1136.7L702 973.1Z" fill="#d08295" stroke="#d08295"></path><path d="M2056 427.8L1994 303.2L1926 376.8Z" fill="#eac0c9" stroke="#eac0c9"></path><path d="M1375 0L1210 0L1317 114.6Z" fill="#a62755" stroke="#a62755"></path><path d="M1994 303.2L1906 184.6L1926 376.8Z" fill="#f8eaed" stroke="#f8eaed"></path><path d="M1759 149.6L1682 0L1613 107.6Z" fill="#f8eaed" stroke="#f8eaed"></path><path d="M1912 1369.8L1975 1272.3L1787 1315.3Z" fill="#b14164" stroke="#b14164"></path><path d="M1967 1098.7L2106 1113.7L2062 935.1Z" fill="#ffffff" stroke="#ffffff"></path><path d="M2062 935.1L2201 837.5L2099 855.5Z" fill="#d08295" stroke="#d08295"></path><path d="M2198 698.9L2134 535.3L2065 655.9Z" fill="#c66d84" stroke="#c66d84"></path><path d="M2056 427.8L2072 263.2L1994 303.2Z" fill="#f8eaed" stroke="#f8eaed"></path><path d="M760 377.8L620 454.8L710 528.3Z" fill="#bc5874" stroke="#bc5874"></path><path d="M710 528.3L581 690.9L770 735.9Z" fill="#eac0c9" stroke="#eac0c9"></path><path d="M701 102.6L746 274.2L885 257.2Z" fill="#d08295" stroke="#d08295"></path><path d="M701 102.6L885 257.2L938 191.6Z" fill="#c66d84" stroke="#c66d84"></path><path d="M1070 1514.4L1221 1364.8L1057 1358.8Z" fill="#f8eaed" stroke="#f8eaed"></path><path d="M574 519.3L581 690.9L710 528.3Z" fill="#b14164" stroke="#b14164"></path><path d="M468 1018.1L559 1110.7L646 970.1Z" fill="#eac0c9" stroke="#eac0c9"></path><path d="M579 1219.3L747 1265.3L709 1136.7Z" fill="#ffffff" stroke="#ffffff"></path><path d="M709 1136.7L747 1265.3L910 1147.7Z" fill="#ffffff" stroke="#ffffff"></path><path d="M920 1311.3L850 1379.8L1057 1358.8Z" fill="#b14164" stroke="#b14164"></path><path d="M2105 1250.3L2106 1113.7L1967 1098.7Z" fill="#d08295" stroke="#d08295"></path><path d="M2099 855.5L2198 698.9L2065 655.9Z" fill="#f1d5db" stroke="#f1d5db"></path><path d="M1781 1395.8L1912 1369.8L1787 1315.3Z" fill="#ffffff" stroke="#ffffff"></path><path d="M1975 1272.3L2105 1250.3L1967 1098.7Z" fill="#eac0c9" stroke="#eac0c9"></path><path d="M1674 1522.4L1781 1395.8L1630 1447.8Z" fill="#c66d84" stroke="#c66d84"></path><path d="M747 1265.3L850 1379.8L920 1311.3Z" fill="#d997a6" stroke="#d997a6"></path><path d="M622 270.2L620 454.8L760 377.8Z" fill="#d997a6" stroke="#d997a6"></path><path d="M850 1379.8L1070 1514.4L1057 1358.8Z" fill="#c66d84" stroke="#c66d84"></path><path d="M1756 0L1682 0L1759 149.6Z" fill="#f8eaed" stroke="#f8eaed"></path><path d="M1631 1687L1674 1522.4L1482 1506.4Z" fill="#d08295" stroke="#d08295"></path><path d="M1482 1506.4L1674 1522.4L1630 1447.8Z" fill="#f8eaed" stroke="#f8eaed"></path><path d="M1466 1687L1482 1506.4L1381 1521.4Z" fill="#f1d5db" stroke="#f1d5db"></path><path d="M2201 837.5L2198 698.9L2099 855.5Z" fill="#f8eaed" stroke="#f8eaed"></path><path d="M1210 0L1045 0L1154 105.6Z" fill="#b14164" stroke="#b14164"></path><path d="M2271 989.1L2201 837.5L2062 935.1Z" fill="#d997a6" stroke="#d997a6"></path><path d="M620 454.8L574 519.3L710 528.3Z" fill="#a62755" stroke="#a62755"></path><path d="M425 552.3L574 519.3L454 412.8Z" fill="#f1d5db" stroke="#f1d5db"></path><path d="M1906 184.6L1756 0L1759 149.6Z" fill="#c66d84" stroke="#c66d84"></path><path d="M1994 303.2L2072 263.2L1906 184.6Z" fill="#d997a6" stroke="#d997a6"></path><path d="M1906 184.6L1970 0L1756 0Z" fill="#e2acb7" stroke="#e2acb7"></path><path d="M2209 242.2L2072 263.2L2056 427.8Z" fill="#d08295" stroke="#d08295"></path><path d="M2231 467.8L2056 427.8L2134 535.3Z" fill="#f1d5db" stroke="#f1d5db"></path><path d="M747 1265.3L798 1403.8L850 1379.8Z" fill="#c66d84" stroke="#c66d84"></path><path d="M850 1379.8L856 1528.4L1070 1514.4Z" fill="#ffffff" stroke="#ffffff"></path><path d="M2226 1255.3L2105 1250.3L2218 1356.8Z" fill="#d997a6" stroke="#d997a6"></path><path d="M2121 1443.8L2105 1250.3L1975 1272.3Z" fill="#c66d84" stroke="#c66d84"></path><path d="M2106 1113.7L2271 989.1L2062 935.1Z" fill="#d997a6" stroke="#d997a6"></path><path d="M646 970.1L559 1110.7L709 1136.7Z" fill="#f1d5db" stroke="#f1d5db"></path><path d="M747 1265.3L591 1365.8L798 1403.8Z" fill="#d08295" stroke="#d08295"></path><path d="M464 879.5L646 970.1L639 833.5Z" fill="#b14164" stroke="#b14164"></path><path d="M464 879.5L639 833.5L581 690.9Z" fill="#f1d5db" stroke="#f1d5db"></path><path d="M701 102.6L622 270.2L746 274.2Z" fill="#d08295" stroke="#d08295"></path><path d="M746 274.2L622 270.2L760 377.8Z" fill="#ffffff" stroke="#ffffff"></path><path d="M2272 604.3L2134 535.3L2198 698.9Z" fill="#d997a6" stroke="#d997a6"></path><path d="M2272 604.3L2231 467.8L2134 535.3Z" fill="#d997a6" stroke="#d997a6"></path><path d="M2398 656.9L2272 604.3L2198 698.9Z" fill="#f8eaed" stroke="#f8eaed"></path><path d="M2353 879.5L2198 698.9L2201 837.5Z" fill="#c66d84" stroke="#c66d84"></path><path d="M451 654.9L581 690.9L574 519.3Z" fill="#bc5874" stroke="#bc5874"></path><path d="M451 654.9L464 879.5L581 690.9Z" fill="#a62755" stroke="#a62755"></path><path d="M416 1222.3L579 1219.3L559 1110.7Z" fill="#e2acb7" stroke="#e2acb7"></path><path d="M559 1110.7L579 1219.3L709 1136.7Z" fill="#b14164" stroke="#b14164"></path><path d="M2282 1094.7L2271 989.1L2106 1113.7Z" fill="#ffffff" stroke="#ffffff"></path><path d="M1045 0L849 0L938 191.6Z" fill="#e2acb7" stroke="#e2acb7"></path><path d="M1212 1687L1345 1687L1229 1542.4Z" fill="#d08295" stroke="#d08295"></path><path d="M1229 1542.4L1345 1687L1381 1521.4Z" fill="#f1d5db" stroke="#f1d5db"></path><path d="M1212 1687L1229 1542.4L1083 1687Z" fill="#b14164" stroke="#b14164"></path><path d="M768 1588.4L856 1528.4L798 1403.8Z" fill="#b14164" stroke="#b14164"></path><path d="M798 1403.8L856 1528.4L850 1379.8Z" fill="#d08295" stroke="#d08295"></path><path d="M425 552.3L451 654.9L574 519.3Z" fill="#eac0c9" stroke="#eac0c9"></path><path d="M1345 1687L1466 1687L1381 1521.4Z" fill="#f1d5db" stroke="#f1d5db"></path><path d="M1674 1522.4L1837 1580.4L1781 1395.8Z" fill="#f8eaed" stroke="#f8eaed"></path><path d="M849 0L701 102.6L938 191.6Z" fill="#d08295" stroke="#d08295"></path><path d="M1770 1687L1837 1580.4L1674 1522.4Z" fill="#f1d5db" stroke="#f1d5db"></path><path d="M1083 1687L1229 1542.4L1070 1514.4Z" fill="#c66d84" stroke="#c66d84"></path><path d="M441 1104.7L468 1018.1L346 1120.7Z" fill="#bc5874" stroke="#bc5874"></path><path d="M464 879.5L468 1018.1L646 970.1Z" fill="#a62755" stroke="#a62755"></path><path d="M2209 242.2L2120 159.6L2072 263.2Z" fill="#f1d5db" stroke="#f1d5db"></path><path d="M2072 263.2L2120 159.6L1906 184.6Z" fill="#f8eaed" stroke="#f8eaed"></path><path d="M849 0L785 0L701 102.6Z" fill="#a62755" stroke="#a62755"></path><path d="M1466 1687L1631 1687L1482 1506.4Z" fill="#c66d84" stroke="#c66d84"></path><path d="M2120 159.6L1970 0L1906 184.6Z" fill="#d997a6" stroke="#d997a6"></path><path d="M2226 1255.3L2282 1094.7L2106 1113.7Z" fill="#b14164" stroke="#b14164"></path><path d="M2271 989.1L2353 879.5L2201 837.5Z" fill="#f1d5db" stroke="#f1d5db"></path><path d="M2226 1255.3L2106 1113.7L2105 1250.3Z" fill="#d997a6" stroke="#d997a6"></path><path d="M898 1687L1083 1687L1070 1514.4Z" fill="#ffffff" stroke="#ffffff"></path><path d="M454 412.8L574 519.3L620 454.8Z" fill="#f8eaed" stroke="#f8eaed"></path><path d="M451 654.9L322 752.9L464 879.5Z" fill="#d997a6" stroke="#d997a6"></path><path d="M454 412.8L620 454.8L494 316.2Z" fill="#eac0c9" stroke="#eac0c9"></path><path d="M2231 467.8L2209 242.2L2056 427.8Z" fill="#c66d84" stroke="#c66d84"></path><path d="M2120 159.6L2096 0L1970 0Z" fill="#f1d5db" stroke="#f1d5db"></path><path d="M2407 430.8L2209 242.2L2231 467.8Z" fill="#e2acb7" stroke="#e2acb7"></path><path d="M2121 1443.8L1975 1272.3L1912 1369.8Z" fill="#f1d5db" stroke="#f1d5db"></path><path d="M2393 1011.1L2353 879.5L2271 989.1Z" fill="#d997a6" stroke="#d997a6"></path><path d="M2272 604.3L2403 545.3L2231 467.8Z" fill="#b14164" stroke="#b14164"></path><path d="M494 316.2L620 454.8L622 270.2Z" fill="#d997a6" stroke="#d997a6"></path><path d="M550 188.6L494 316.2L622 270.2Z" fill="#bc5874" stroke="#bc5874"></path><path d="M550 188.6L622 270.2L701 102.6Z" fill="#eac0c9" stroke="#eac0c9"></path><path d="M1837 1580.4L1952 1561.4L1912 1369.8Z" fill="#d997a6" stroke="#d997a6"></path><path d="M1984 1687L1952 1561.4L1837 1580.4Z" fill="#f1d5db" stroke="#f1d5db"></path><path d="M444 1382.8L591 1365.8L579 1219.3Z" fill="#ffffff" stroke="#ffffff"></path><path d="M579 1219.3L591 1365.8L747 1265.3Z" fill="#eac0c9" stroke="#eac0c9"></path><path d="M856 1528.4L898 1687L1070 1514.4Z" fill="#d08295" stroke="#d08295"></path><path d="M468 1018.1L441 1104.7L559 1110.7Z" fill="#f8eaed" stroke="#f8eaed"></path><path d="M346 1120.7L468 1018.1L253 1024.1Z" fill="#ffffff" stroke="#ffffff"></path><path d="M493 133.6L550 188.6L603 0Z" fill="#a62755" stroke="#a62755"></path><path d="M1631 1687L1770 1687L1674 1522.4Z" fill="#f1d5db" stroke="#f1d5db"></path><path d="M2086 1535.4L2121 1443.8L1912 1369.8Z" fill="#eac0c9" stroke="#eac0c9"></path><path d="M2353 879.5L2398 656.9L2198 698.9Z" fill="#a62755" stroke="#a62755"></path><path d="M646 1530.4L768 1588.4L798 1403.8Z" fill="#ffffff" stroke="#ffffff"></path><path d="M2121 1443.8L2218 1356.8L2105 1250.3Z" fill="#c66d84" stroke="#c66d84"></path><path d="M2367 1135.7L2393 1011.1L2282 1094.7Z" fill="#f8eaed" stroke="#f8eaed"></path><path d="M2282 1094.7L2393 1011.1L2271 989.1Z" fill="#d08295" stroke="#d08295"></path><path d="M768 1588.4L898 1687L856 1528.4Z" fill="#d997a6" stroke="#d997a6"></path><path d="M2255 163.6L2096 0L2120 159.6Z" fill="#f8eaed" stroke="#f8eaed"></path><path d="M2367 1135.7L2282 1094.7L2226 1255.3Z" fill="#ffffff" stroke="#ffffff"></path><path d="M2565 849.5L2565 668.9L2398 656.9Z" fill="#a62755" stroke="#a62755"></path><path d="M2407 430.8L2403 545.3L2572 468.8Z" fill="#c66d84" stroke="#c66d84"></path><path d="M2398 656.9L2403 545.3L2272 604.3Z" fill="#c66d84" stroke="#c66d84"></path><path d="M2209 242.2L2255 163.6L2120 159.6Z" fill="#c66d84" stroke="#c66d84"></path><path d="M2121 1443.8L2283 1554.4L2218 1356.8Z" fill="#f8eaed" stroke="#f8eaed"></path><path d="M1952 1561.4L2086 1535.4L1912 1369.8Z" fill="#ffffff" stroke="#ffffff"></path><path d="M1984 1687L2086 1535.4L1952 1561.4Z" fill="#d08295" stroke="#d08295"></path><path d="M261 511.3L322 752.9L425 552.3Z" fill="#e2acb7" stroke="#e2acb7"></path><path d="M425 552.3L322 752.9L451 654.9Z" fill="#d08295" stroke="#d08295"></path><path d="M2418 1314.3L2367 1135.7L2226 1255.3Z" fill="#f1d5db" stroke="#f1d5db"></path><path d="M2395 164.6L2255 163.6L2209 242.2Z" fill="#b14164" stroke="#b14164"></path><path d="M591 1365.8L646 1530.4L798 1403.8Z" fill="#f8eaed" stroke="#f8eaed"></path><path d="M768 1588.4L749 1687L898 1687Z" fill="#eac0c9" stroke="#eac0c9"></path><path d="M413 1529.4L646 1530.4L591 1365.8Z" fill="#ffffff" stroke="#ffffff"></path><path d="M346 1120.7L416 1222.3L441 1104.7Z" fill="#a62755" stroke="#a62755"></path><path d="M441 1104.7L416 1222.3L559 1110.7Z" fill="#eac0c9" stroke="#eac0c9"></path><path d="M2446 273.2L2407 430.8L2500 316.2Z" fill="#e2acb7" stroke="#e2acb7"></path><path d="M2403 545.3L2407 430.8L2231 467.8Z" fill="#f8eaed" stroke="#f8eaed"></path><path d="M494 316.2L350 382.8L454 412.8Z" fill="#d997a6" stroke="#d997a6"></path><path d="M454 412.8L350 382.8L425 552.3Z" fill="#bc5874" stroke="#bc5874"></path><path d="M550 188.6L493 133.6L494 316.2Z" fill="#a62755" stroke="#a62755"></path><path d="M603 0L550 188.6L701 102.6Z" fill="#eac0c9" stroke="#eac0c9"></path><path d="M785 0L603 0L701 102.6Z" fill="#a62755" stroke="#a62755"></path><path d="M253 1024.1L468 1018.1L464 879.5Z" fill="#eac0c9" stroke="#eac0c9"></path><path d="M276 305.2L350 382.8L494 316.2Z" fill="#f1d5db" stroke="#f1d5db"></path><path d="M1770 1687L1984 1687L1837 1580.4Z" fill="#d08295" stroke="#d08295"></path><path d="M2396 1451.8L2418 1314.3L2218 1356.8Z" fill="#b14164" stroke="#b14164"></path><path d="M645 1687L768 1588.4L646 1530.4Z" fill="#f8eaed" stroke="#f8eaed"></path><path d="M645 1687L749 1687L768 1588.4Z" fill="#bc5874" stroke="#bc5874"></path><path d="M335 1399.8L444 1382.8L416 1222.3Z" fill="#e2acb7" stroke="#e2acb7"></path><path d="M416 1222.3L444 1382.8L579 1219.3Z" fill="#b14164" stroke="#b14164"></path><path d="M199 857.5L254 836.5L189 659.9Z" fill="#f1d5db" stroke="#f1d5db"></path><path d="M322 752.9L254 836.5L464 879.5Z" fill="#e2acb7" stroke="#e2acb7"></path><path d="M276 305.2L261 511.3L350 382.8Z" fill="#a62755" stroke="#a62755"></path><path d="M350 382.8L261 511.3L425 552.3Z" fill="#b14164" stroke="#b14164"></path><path d="M254 836.5L253 1024.1L464 879.5Z" fill="#b14164" stroke="#b14164"></path><path d="M346 1120.7L276 1215.3L416 1222.3Z" fill="#bc5874" stroke="#bc5874"></path><path d="M603 0L500 0L493 133.6Z" fill="#eac0c9" stroke="#eac0c9"></path><path d="M493 133.6L276 305.2L494 316.2Z" fill="#f8eaed" stroke="#f8eaed"></path><path d="M2565 668.9L2403 545.3L2398 656.9Z" fill="#e2acb7" stroke="#e2acb7"></path><path d="M2407 430.8L2446 273.2L2209 242.2Z" fill="#d997a6" stroke="#d997a6"></path><path d="M2255 163.6L2286 0L2096 0Z" fill="#eac0c9" stroke="#eac0c9"></path><path d="M2446 273.2L2395 164.6L2209 242.2Z" fill="#a62755" stroke="#a62755"></path><path d="M2552 995.1L2353 879.5L2393 1011.1Z" fill="#f1d5db" stroke="#f1d5db"></path><path d="M2565 849.5L2398 656.9L2353 879.5Z" fill="#d997a6" stroke="#d997a6"></path><path d="M2218 1356.8L2418 1314.3L2226 1255.3Z" fill="#f1d5db" stroke="#f1d5db"></path><path d="M2283 1554.4L2121 1443.8L2086 1535.4Z" fill="#ffffff" stroke="#ffffff"></path><path d="M189 659.9L254 836.5L322 752.9Z" fill="#ffffff" stroke="#ffffff"></path><path d="M254 836.5L199 857.5L253 1024.1Z" fill="#ffffff" stroke="#ffffff"></path><path d="M413 1529.4L645 1687L646 1530.4Z" fill="#f8eaed" stroke="#f8eaed"></path><path d="M2395 164.6L2286 0L2255 163.6Z" fill="#a62755" stroke="#a62755"></path><path d="M266 135.6L276 305.2L493 133.6Z" fill="#f8eaed" stroke="#f8eaed"></path><path d="M261 511.3L189 659.9L322 752.9Z" fill="#ffffff" stroke="#ffffff"></path><path d="M253 1024.1L276 1215.3L346 1120.7Z" fill="#eac0c9" stroke="#eac0c9"></path><path d="M444 1382.8L413 1529.4L591 1365.8Z" fill="#d08295" stroke="#d08295"></path><path d="M184 1292.3L276 1215.3L127 1154.7Z" fill="#bc5874" stroke="#bc5874"></path><path d="M137 588.3L189 659.9L261 511.3Z" fill="#ffffff" stroke="#ffffff"></path><path d="M2565 849.5L2353 879.5L2552 995.1Z" fill="#e2acb7" stroke="#e2acb7"></path><path d="M2552 995.1L2393 1011.1L2520 1142.7Z" fill="#ffffff" stroke="#ffffff"></path><path d="M1984 1687L2128 1687L2086 1535.4Z" fill="#eac0c9" stroke="#eac0c9"></path><path d="M2520 1142.7L2393 1011.1L2367 1135.7Z" fill="#f1d5db" stroke="#f1d5db"></path><path d="M2128 1687L2283 1554.4L2086 1535.4Z" fill="#eac0c9" stroke="#eac0c9"></path><path d="M2538 1267.3L2520 1142.7L2418 1314.3Z" fill="#ffffff" stroke="#ffffff"></path><path d="M2418 1314.3L2520 1142.7L2367 1135.7Z" fill="#a62755" stroke="#a62755"></path><path d="M2572 468.8L2500 316.2L2407 430.8Z" fill="#f8eaed" stroke="#f8eaed"></path><path d="M2446 273.2L2577 106.6L2395 164.6Z" fill="#d08295" stroke="#d08295"></path><path d="M2395 164.6L2417 0L2286 0Z" fill="#d997a6" stroke="#d997a6"></path><path d="M276 1215.3L335 1399.8L416 1222.3Z" fill="#d997a6" stroke="#d997a6"></path><path d="M2591 548.3L2572 468.8L2403 545.3Z" fill="#e2acb7" stroke="#e2acb7"></path><path d="M2591 548.3L2403 545.3L2565 668.9Z" fill="#bc5874" stroke="#bc5874"></path><path d="M2696 592.3L2591 548.3L2565 668.9Z" fill="#d08295" stroke="#d08295"></path><path d="M2283 1554.4L2396 1451.8L2218 1356.8Z" fill="#d997a6" stroke="#d997a6"></path><path d="M335 1399.8L413 1529.4L444 1382.8Z" fill="#bc5874" stroke="#bc5874"></path><path d="M133 411.8L137 588.3L261 511.3Z" fill="#d08295" stroke="#d08295"></path><path d="M0 890.5L133 934.1L199 857.5Z" fill="#d997a6" stroke="#d997a6"></path><path d="M199 857.5L133 934.1L253 1024.1Z" fill="#f8eaed" stroke="#f8eaed"></path><path d="M0 684.9L199 857.5L189 659.9Z" fill="#ffffff" stroke="#ffffff"></path><path d="M276 1215.3L184 1292.3L335 1399.8Z" fill="#eac0c9" stroke="#eac0c9"></path><path d="M2574 1391.8L2538 1267.3L2418 1314.3Z" fill="#f1d5db" stroke="#f1d5db"></path><path d="M2695 970.1L2660 890.5L2552 995.1Z" fill="#ffffff" stroke="#ffffff"></path><path d="M2552 995.1L2660 890.5L2565 849.5Z" fill="#e2acb7" stroke="#e2acb7"></path><path d="M2565 849.5L2744 713.9L2565 668.9Z" fill="#d08295" stroke="#d08295"></path><path d="M265 0L266 135.6L493 133.6Z" fill="#d997a6" stroke="#d997a6"></path><path d="M276 305.2L133 411.8L261 511.3Z" fill="#a62755" stroke="#a62755"></path><path d="M2577 106.6L2446 273.2L2500 316.2Z" fill="#eac0c9" stroke="#eac0c9"></path><path d="M2577 106.6L2417 0L2395 164.6Z" fill="#d08295" stroke="#d08295"></path><path d="M2283 1554.4L2442 1554.4L2396 1451.8Z" fill="#f1d5db" stroke="#f1d5db"></path><path d="M2396 1451.8L2574 1391.8L2418 1314.3Z" fill="#c66d84" stroke="#c66d84"></path><path d="M2128 1687L2271 1687L2283 1554.4Z" fill="#a62755" stroke="#a62755"></path><path d="M2695 970.1L2552 995.1L2711 1131.7Z" fill="#a62755" stroke="#a62755"></path><path d="M110 279.2L133 411.8L276 305.2Z" fill="#eac0c9" stroke="#eac0c9"></path><path d="M137 588.3L0 684.9L189 659.9Z" fill="#f8eaed" stroke="#f8eaed"></path><path d="M127 1154.7L276 1215.3L253 1024.1Z" fill="#b14164" stroke="#b14164"></path><path d="M335 1399.8L295 1556.4L413 1529.4Z" fill="#f1d5db" stroke="#f1d5db"></path><path d="M133 934.1L127 1154.7L253 1024.1Z" fill="#a62755" stroke="#a62755"></path><path d="M0 1030.1L127 1154.7L133 934.1Z" fill="#c66d84" stroke="#c66d84"></path><path d="M168 0L197 156.6L266 135.6Z" fill="#eac0c9" stroke="#eac0c9"></path><path d="M266 135.6L197 156.6L276 305.2Z" fill="#f1d5db" stroke="#f1d5db"></path><path d="M2423 1687L2442 1554.4L2283 1554.4Z" fill="#c66d84" stroke="#c66d84"></path><path d="M2744 713.9L2696 592.3L2565 668.9Z" fill="#d997a6" stroke="#d997a6"></path><path d="M2591 548.3L2660 406.8L2572 468.8Z" fill="#e2acb7" stroke="#e2acb7"></path><path d="M2572 468.8L2660 406.8L2500 316.2Z" fill="#bc5874" stroke="#bc5874"></path><path d="M2696 592.3L2660 406.8L2591 548.3Z" fill="#a62755" stroke="#a62755"></path><path d="M2679 1219.3L2520 1142.7L2538 1267.3Z" fill="#a62755" stroke="#a62755"></path><path d="M2711 1131.7L2552 995.1L2520 1142.7Z" fill="#f8eaed" stroke="#f8eaed"></path><path d="M2660 890.5L2744 713.9L2565 849.5Z" fill="#d997a6" stroke="#d997a6"></path><path d="M195 1551.4L295 1556.4L335 1399.8Z" fill="#ffffff" stroke="#ffffff"></path><path d="M413 1529.4L401 1687L645 1687Z" fill="#d08295" stroke="#d08295"></path><path d="M500 0L265 0L493 133.6Z" fill="#ffffff" stroke="#ffffff"></path><path d="M295 1556.4L401 1687L413 1529.4Z" fill="#eac0c9" stroke="#eac0c9"></path><path d="M0 295.2L110 279.2L0 134.6Z" fill="#f1d5db" stroke="#f1d5db"></path><path d="M197 156.6L110 279.2L276 305.2Z" fill="#eac0c9" stroke="#eac0c9"></path><path d="M0 570.3L0 684.9L137 588.3Z" fill="#bc5874" stroke="#bc5874"></path><path d="M2442 1554.4L2574 1391.8L2396 1451.8Z" fill="#ffffff" stroke="#ffffff"></path><path d="M2685 252.2L2577 106.6L2500 316.2Z" fill="#bc5874" stroke="#bc5874"></path><path d="M2837 875.5L2744 713.9L2660 890.5Z" fill="#e2acb7" stroke="#e2acb7"></path><path d="M2747 173.6L2685 252.2L2812 274.2Z" fill="#e2acb7" stroke="#e2acb7"></path><path d="M0 570.3L137 588.3L0 467.8Z" fill="#d997a6" stroke="#d997a6"></path><path d="M2574 1391.8L2679 1219.3L2538 1267.3Z" fill="#b14164" stroke="#b14164"></path><path d="M2695 970.1L2837 875.5L2660 890.5Z" fill="#eac0c9" stroke="#eac0c9"></path><path d="M0 684.9L0 890.5L199 857.5Z" fill="#bc5874" stroke="#bc5874"></path><path d="M0 1272.3L134 1414.8L184 1292.3Z" fill="#b14164" stroke="#b14164"></path><path d="M184 1292.3L134 1414.8L335 1399.8Z" fill="#b14164" stroke="#b14164"></path><path d="M2679 1219.3L2711 1131.7L2520 1142.7Z" fill="#c66d84" stroke="#c66d84"></path><path d="M0 467.8L137 588.3L133 411.8Z" fill="#f8eaed" stroke="#f8eaed"></path><path d="M2271 1687L2423 1687L2283 1554.4Z" fill="#c66d84" stroke="#c66d84"></path><path d="M2442 1554.4L2587 1548.4L2574 1391.8Z" fill="#e2acb7" stroke="#e2acb7"></path><path d="M2574 1391.8L2703 1454.8L2679 1219.3Z" fill="#a62755" stroke="#a62755"></path><path d="M0 890.5L0 1030.1L133 934.1Z" fill="#f8eaed" stroke="#f8eaed"></path><path d="M2685 252.2L2660 406.8L2812 274.2Z" fill="#a62755" stroke="#a62755"></path><path d="M2660 406.8L2685 252.2L2500 316.2Z" fill="#b14164" stroke="#b14164"></path><path d="M0 1272.3L184 1292.3L127 1154.7Z" fill="#b14164" stroke="#b14164"></path><path d="M295 1556.4L298 1687L401 1687Z" fill="#d08295" stroke="#d08295"></path><path d="M0 295.2L0 467.8L133 411.8Z" fill="#ffffff" stroke="#ffffff"></path><path d="M0 295.2L133 411.8L110 279.2Z" fill="#ffffff" stroke="#ffffff"></path><path d="M0 1030.1L0 1111.7L127 1154.7Z" fill="#a62755" stroke="#a62755"></path><path d="M134 1414.8L195 1551.4L335 1399.8Z" fill="#f8eaed" stroke="#f8eaed"></path><path d="M196 1687L298 1687L295 1556.4Z" fill="#f8eaed" stroke="#f8eaed"></path><path d="M265 0L168 0L266 135.6Z" fill="#ffffff" stroke="#ffffff"></path><path d="M2577 106.6L2585 0L2417 0Z" fill="#a62755" stroke="#a62755"></path><path d="M2701 0L2585 0L2577 106.6Z" fill="#a62755" stroke="#a62755"></path><path d="M2580 1687L2587 1548.4L2442 1554.4Z" fill="#eac0c9" stroke="#eac0c9"></path><path d="M2892 1169.7L2811 1024.1L2711 1131.7Z" fill="#bc5874" stroke="#bc5874"></path><path d="M0 134.6L110 279.2L197 156.6Z" fill="#bc5874" stroke="#bc5874"></path><path d="M2819 1284.3L2711 1131.7L2679 1219.3Z" fill="#bc5874" stroke="#bc5874"></path><path d="M2711 1131.7L2811 1024.1L2695 970.1Z" fill="#d08295" stroke="#d08295"></path><path d="M2831 429.8L2660 406.8L2696 592.3Z" fill="#f1d5db" stroke="#f1d5db"></path><path d="M2811 1024.1L2837 875.5L2695 970.1Z" fill="#c66d84" stroke="#c66d84"></path><path d="M0 1687L196 1687L195 1551.4Z" fill="#f8eaed" stroke="#f8eaed"></path><path d="M0 1111.7L0 1272.3L127 1154.7Z" fill="#c66d84" stroke="#c66d84"></path><path d="M2831 429.8L2696 592.3L2862 510.3Z" fill="#a62755" stroke="#a62755"></path><path d="M2685 252.2L2747 173.6L2577 106.6Z" fill="#d08295" stroke="#d08295"></path><path d="M2865 650.9L2696 592.3L2744 713.9Z" fill="#d997a6" stroke="#d997a6"></path><path d="M2837 875.5L2865 650.9L2744 713.9Z" fill="#f8eaed" stroke="#f8eaed"></path><path d="M2587 1548.4L2703 1454.8L2574 1391.8Z" fill="#eac0c9" stroke="#eac0c9"></path><path d="M2724 1535.4L2703 1454.8L2587 1548.4Z" fill="#bc5874" stroke="#bc5874"></path><path d="M0 1541.4L195 1551.4L134 1414.8Z" fill="#f8eaed" stroke="#f8eaed"></path><path d="M195 1551.4L196 1687L295 1556.4Z" fill="#ffffff" stroke="#ffffff"></path><path d="M2865 650.9L2862 510.3L2696 592.3Z" fill="#f1d5db" stroke="#f1d5db"></path><path d="M2831 429.8L2812 274.2L2660 406.8Z" fill="#e2acb7" stroke="#e2acb7"></path><path d="M168 0L0 134.6L197 156.6Z" fill="#ffffff" stroke="#ffffff"></path><path d="M2900 128.6L2812 274.2L3000 245.2Z" fill="#e2acb7" stroke="#e2acb7"></path><path d="M0 1272.3L0 1402.8L134 1414.8Z" fill="#eac0c9" stroke="#eac0c9"></path><path d="M2423 1687L2580 1687L2442 1554.4Z" fill="#e2acb7" stroke="#e2acb7"></path><path d="M2747 173.6L2701 0L2577 106.6Z" fill="#ffffff" stroke="#ffffff"></path><path d="M2853 0L2701 0L2747 173.6Z" fill="#f1d5db" stroke="#f1d5db"></path><path d="M2867 1377.8L2819 1284.3L2703 1454.8Z" fill="#d08295" stroke="#d08295"></path><path d="M2703 1454.8L2819 1284.3L2679 1219.3Z" fill="#e2acb7" stroke="#e2acb7"></path><path d="M3000 958.1L3000 858.5L2837 875.5Z" fill="#f8eaed" stroke="#f8eaed"></path><path d="M2837 875.5L3000 703.9L2865 650.9Z" fill="#eac0c9" stroke="#eac0c9"></path><path d="M2719 1687L2724 1535.4L2587 1548.4Z" fill="#eac0c9" stroke="#eac0c9"></path><path d="M3000 1238.3L2892 1169.7L2819 1284.3Z" fill="#b14164" stroke="#b14164"></path><path d="M2819 1284.3L2892 1169.7L2711 1131.7Z" fill="#e2acb7" stroke="#e2acb7"></path><path d="M2865 650.9L3000 612.3L2862 510.3Z" fill="#d997a6" stroke="#d997a6"></path><path d="M168 0L0 0L0 134.6Z" fill="#d08295" stroke="#d08295"></path><path d="M0 1402.8L0 1541.4L134 1414.8Z" fill="#e2acb7" stroke="#e2acb7"></path><path d="M2724 1535.4L2867 1377.8L2703 1454.8Z" fill="#e2acb7" stroke="#e2acb7"></path><path d="M2837 875.5L2811 1024.1L3000 958.1Z" fill="#c66d84" stroke="#c66d84"></path><path d="M3000 858.5L3000 703.9L2837 875.5Z" fill="#b14164" stroke="#b14164"></path><path d="M2862 510.3L3000 458.8L2831 429.8Z" fill="#ffffff" stroke="#ffffff"></path><path d="M2812 274.2L2900 128.6L2747 173.6Z" fill="#c66d84" stroke="#c66d84"></path><path d="M3000 958.1L2811 1024.1L3000 1092.7Z" fill="#ffffff" stroke="#ffffff"></path><path d="M3000 703.9L3000 612.3L2865 650.9Z" fill="#b14164" stroke="#b14164"></path><path d="M2580 1687L2719 1687L2587 1548.4Z" fill="#eac0c9" stroke="#eac0c9"></path><path d="M2724 1535.4L2846 1596.4L2867 1377.8Z" fill="#d08295" stroke="#d08295"></path><path d="M3000 1092.7L2811 1024.1L2892 1169.7Z" fill="#f1d5db" stroke="#f1d5db"></path><path d="M3000 245.2L2812 274.2L2831 429.8Z" fill="#a62755" stroke="#a62755"></path><path d="M3000 612.3L3000 458.8L2862 510.3Z" fill="#e2acb7" stroke="#e2acb7"></path><path d="M3000 1238.3L3000 1092.7L2892 1169.7Z" fill="#d08295" stroke="#d08295"></path><path d="M0 1541.4L0 1687L195 1551.4Z" fill="#e2acb7" stroke="#e2acb7"></path><path d="M2900 128.6L2853 0L2747 173.6Z" fill="#ffffff" stroke="#ffffff"></path><path d="M2719 1687L2846 1596.4L2724 1535.4Z" fill="#d08295" stroke="#d08295"></path><path d="M2867 1377.8L3000 1238.3L2819 1284.3Z" fill="#e2acb7" stroke="#e2acb7"></path><path d="M3000 1420.8L3000 1238.3L2867 1377.8Z" fill="#a62755" stroke="#a62755"></path><path d="M3000 458.8L3000 245.2L2831 429.8Z" fill="#b14164" stroke="#b14164"></path><path d="M2900 128.6L3000 0L2853 0Z" fill="#ffffff" stroke="#ffffff"></path><path d="M3000 245.2L3000 139.6L2900 128.6Z" fill="#e2acb7" stroke="#e2acb7"></path><path d="M2719 1687L2848 1687L2846 1596.4Z" fill="#b14164" stroke="#b14164"></path><path d="M3000 1494.4L3000 1420.8L2867 1377.8Z" fill="#e2acb7" stroke="#e2acb7"></path><path d="M3000 1494.4L2867 1377.8L2846 1596.4Z" fill="#d997a6" stroke="#d997a6"></path><path d="M3000 1687L3000 1494.4L2846 1596.4Z" fill="#bc5874" stroke="#bc5874"></path><path d="M3000 139.6L3000 0L2900 128.6Z" fill="#d08295" stroke="#d08295"></path><path d="M2848 1687L3000 1687L2846 1596.4Z" fill="#c66d84" stroke="#c66d84"></path></g></svg>