<svg id="visual" viewBox="0 0 3000 1687" width="3000" height="1687" xmlns="http://www.w3.org/2000/svg" xmlns:xlink="http://www.w3.org/1999/xlink" version="1.1"><g stroke-width="1" stroke-linejoin="bevel"><path d="M1424 825.5L1575 670.9L1386 776.5Z" fill="#707da3" stroke="#ffffff"></path><path d="M1575 670.9L1383 600.3L1386 776.5Z" fill="#bdc9da" stroke="#ffffff"></path><path d="M1536 582.3L1383 600.3L1575 670.9Z" fill="#5a6490" stroke="#ffffff"></path><path d="M1424 825.5L1666 736.9L1575 670.9Z" fill="#474c7d" stroke="#ffffff"></path><path d="M1709 504.3L1649 475.8L1536 582.3Z" fill="#5a6490" stroke="#ffffff"></path><path d="M1266 986.1L1430 954.1L1424 825.5Z" fill="#170441" stroke="#ffffff"></path><path d="M1424 825.5L1745 904.5L1666 736.9Z" fill="#dbe3ec" stroke="#ffffff"></path><path d="M1383 600.3L1266 670.9L1386 776.5Z" fill="#dbe3ec" stroke="#ffffff"></path><path d="M1386 776.5L1266 986.1L1424 825.5Z" fill="#707da3" stroke="#ffffff"></path><path d="M1745 904.5L1741 747.9L1666 736.9Z" fill="#dbe3ec" stroke="#ffffff"></path><path d="M1709 504.3L1536 582.3L1575 670.9Z" fill="#474c7d" stroke="#ffffff"></path><path d="M1348 421.8L1284 585.3L1383 600.3Z" fill="#a2afc8" stroke="#ffffff"></path><path d="M1383 600.3L1284 585.3L1266 670.9Z" fill="#8896b5" stroke="#ffffff"></path><path d="M1284 585.3L1215 673.9L1266 670.9Z" fill="#5a6490" stroke="#ffffff"></path><path d="M1266 670.9L1184 764.5L1386 776.5Z" fill="#251d55" stroke="#ffffff"></path><path d="M1215 673.9L1184 764.5L1266 670.9Z" fill="#fbfdff" stroke="#ffffff"></path><path d="M1709 504.3L1575 670.9L1666 736.9Z" fill="#474c7d" stroke="#ffffff"></path><path d="M1536 582.3L1470 429.8L1383 600.3Z" fill="#707da3" stroke="#ffffff"></path><path d="M1430 954.1L1745 904.5L1424 825.5Z" fill="#707da3" stroke="#ffffff"></path><path d="M1649 475.8L1470 429.8L1536 582.3Z" fill="#bdc9da" stroke="#ffffff"></path><path d="M1741 747.9L1709 504.3L1666 736.9Z" fill="#474c7d" stroke="#ffffff"></path><path d="M1266 986.1L1426 1063.7L1430 954.1Z" fill="#bdc9da" stroke="#ffffff"></path><path d="M1430 954.1L1703 1017.1L1745 904.5Z" fill="#bdc9da" stroke="#ffffff"></path><path d="M1184 764.5L1266 986.1L1386 776.5Z" fill="#474c7d" stroke="#ffffff"></path><path d="M1741 747.9L1730 498.3L1709 504.3Z" fill="#dbe3ec" stroke="#ffffff"></path><path d="M1709 504.3L1730 498.3L1649 475.8Z" fill="#707da3" stroke="#ffffff"></path><path d="M1470 429.8L1348 421.8L1383 600.3Z" fill="#a2afc8" stroke="#ffffff"></path><path d="M1284 585.3L1149 499.3L1215 673.9Z" fill="#251d55" stroke="#ffffff"></path><path d="M1745 904.5L1829 813.5L1741 747.9Z" fill="#474c7d" stroke="#ffffff"></path><path d="M1741 747.9L1877 688.9L1730 498.3Z" fill="#170441" stroke="#ffffff"></path><path d="M1675 1054.1L1703 1017.1L1430 954.1Z" fill="#251d55" stroke="#ffffff"></path><path d="M1745 904.5L1902 1036.1L1829 813.5Z" fill="#251d55" stroke="#ffffff"></path><path d="M1607 1131.7L1675 1054.1L1430 954.1Z" fill="#fbfdff" stroke="#ffffff"></path><path d="M1348 421.8L1274 424.8L1284 585.3Z" fill="#a2afc8" stroke="#ffffff"></path><path d="M966 759.9L985 782.9L1184 764.5Z" fill="#8896b5" stroke="#ffffff"></path><path d="M2008 867.5L1874 746.5L1829 813.5Z" fill="#5a6490" stroke="#ffffff"></path><path d="M1829 813.5L1874 746.5L1741 747.9Z" fill="#251d55" stroke="#ffffff"></path><path d="M1874 746.5L1877 688.9L1741 747.9Z" fill="#474c7d" stroke="#ffffff"></path><path d="M1266 986.1L1401 1134.7L1426 1063.7Z" fill="#bdc9da" stroke="#ffffff"></path><path d="M1426 1063.7L1607 1131.7L1430 954.1Z" fill="#251d55" stroke="#ffffff"></path><path d="M1444 1172.3L1607 1131.7L1426 1063.7Z" fill="#bdc9da" stroke="#ffffff"></path><path d="M1274 424.8L1149 499.3L1284 585.3Z" fill="#251d55" stroke="#ffffff"></path><path d="M985 782.9L1123 935.1L1184 764.5Z" fill="#707da3" stroke="#ffffff"></path><path d="M1184 764.5L1123 935.1L1266 986.1Z" fill="#8896b5" stroke="#ffffff"></path><path d="M1158 1207.7L1396 1190.3L1401 1134.7Z" fill="#170441" stroke="#ffffff"></path><path d="M1396 1190.3L1444 1172.3L1401 1134.7Z" fill="#353469" stroke="#ffffff"></path><path d="M1401 1134.7L1444 1172.3L1426 1063.7Z" fill="#dbe3ec" stroke="#ffffff"></path><path d="M1158 1207.7L1401 1134.7L1266 986.1Z" fill="#170441" stroke="#ffffff"></path><path d="M1444 1172.3L1646 1179.3L1607 1131.7Z" fill="#bdc9da" stroke="#ffffff"></path><path d="M1945 364.2L1758 352.8L1730 498.3Z" fill="#fbfdff" stroke="#ffffff"></path><path d="M1730 498.3L1758 352.8L1649 475.8Z" fill="#170441" stroke="#ffffff"></path><path d="M1649 475.8L1615 223.2L1470 429.8Z" fill="#707da3" stroke="#ffffff"></path><path d="M1337 254.2L1282 296.2L1348 421.8Z" fill="#a2afc8" stroke="#ffffff"></path><path d="M1348 421.8L1282 296.2L1274 424.8Z" fill="#8896b5" stroke="#ffffff"></path><path d="M1424 1313.8L1646 1179.3L1444 1172.3Z" fill="#170441" stroke="#ffffff"></path><path d="M1607 1131.7L1646 1179.3L1675 1054.1Z" fill="#707da3" stroke="#ffffff"></path><path d="M1675 1054.1L1706 1180.7L1703 1017.1Z" fill="#a2afc8" stroke="#ffffff"></path><path d="M1703 1017.1L1902 1036.1L1745 904.5Z" fill="#bdc9da" stroke="#ffffff"></path><path d="M1337 254.2L1348 421.8L1470 429.8Z" fill="#bdc9da" stroke="#ffffff"></path><path d="M1274 424.8L1282 296.2L1149 499.3Z" fill="#353469" stroke="#ffffff"></path><path d="M1689 1450.8L1706 1180.7L1646 1179.3Z" fill="#dbe3ec" stroke="#ffffff"></path><path d="M1646 1179.3L1706 1180.7L1675 1054.1Z" fill="#251d55" stroke="#ffffff"></path><path d="M966 759.9L1184 764.5L1215 673.9Z" fill="#5a6490" stroke="#ffffff"></path><path d="M1483 194.2L1337 254.2L1470 429.8Z" fill="#5a6490" stroke="#ffffff"></path><path d="M1866 1165.3L1902 1036.1L1703 1017.1Z" fill="#170441" stroke="#ffffff"></path><path d="M2137 716.9L1987 560.3L1877 688.9Z" fill="#fbfdff" stroke="#ffffff"></path><path d="M974 822.5L1015 944.1L1123 935.1Z" fill="#fbfdff" stroke="#ffffff"></path><path d="M1123 935.1L1158 1207.7L1266 986.1Z" fill="#5a6490" stroke="#ffffff"></path><path d="M985 782.9L974 822.5L1123 935.1Z" fill="#bdc9da" stroke="#ffffff"></path><path d="M1149 499.3L966 759.9L1215 673.9Z" fill="#bdc9da" stroke="#ffffff"></path><path d="M985 782.9L966 759.9L974 822.5Z" fill="#474c7d" stroke="#ffffff"></path><path d="M839 662.9L966 759.9L884 478.3Z" fill="#251d55" stroke="#ffffff"></path><path d="M1758 352.8L1615 223.2L1649 475.8Z" fill="#5a6490" stroke="#ffffff"></path><path d="M2137 716.9L1877 688.9L1874 746.5Z" fill="#353469" stroke="#ffffff"></path><path d="M1877 688.9L1987 560.3L1730 498.3Z" fill="#474c7d" stroke="#ffffff"></path><path d="M1902 1036.1L2008 867.5L1829 813.5Z" fill="#a2afc8" stroke="#ffffff"></path><path d="M1615 223.2L1483 194.2L1470 429.8Z" fill="#bdc9da" stroke="#ffffff"></path><path d="M1483 194.2L1381 198.6L1337 254.2Z" fill="#170441" stroke="#ffffff"></path><path d="M1337 254.2L1247 56.6L1282 296.2Z" fill="#a2afc8" stroke="#ffffff"></path><path d="M1706 1180.7L1866 1165.3L1703 1017.1Z" fill="#170441" stroke="#ffffff"></path><path d="M1902 1036.1L2000 1068.7L2008 867.5Z" fill="#fbfdff" stroke="#ffffff"></path><path d="M1483 194.2L1420 166.6L1381 198.6Z" fill="#474c7d" stroke="#ffffff"></path><path d="M1438 0L1420 166.6L1483 194.2Z" fill="#5a6490" stroke="#ffffff"></path><path d="M962 1026.7L1158 1207.7L1123 935.1Z" fill="#dbe3ec" stroke="#ffffff"></path><path d="M1396 1190.3L1424 1313.8L1444 1172.3Z" fill="#5a6490" stroke="#ffffff"></path><path d="M1419 1325.8L1424 1313.8L1281 1365.8Z" fill="#dbe3ec" stroke="#ffffff"></path><path d="M1869 1427.8L1942 1214.3L1866 1165.3Z" fill="#fbfdff" stroke="#ffffff"></path><path d="M1987 560.3L1945 364.2L1730 498.3Z" fill="#8896b5" stroke="#ffffff"></path><path d="M1758 352.8L1797 219.2L1615 223.2Z" fill="#a2afc8" stroke="#ffffff"></path><path d="M1281 1365.8L1424 1313.8L1396 1190.3Z" fill="#474c7d" stroke="#ffffff"></path><path d="M1424 1313.8L1689 1450.8L1646 1179.3Z" fill="#fbfdff" stroke="#ffffff"></path><path d="M898 363.8L990 407.8L957 235.2Z" fill="#707da3" stroke="#ffffff"></path><path d="M1282 296.2L990 407.8L1149 499.3Z" fill="#707da3" stroke="#ffffff"></path><path d="M990 407.8L1282 296.2L996 197.2Z" fill="#bdc9da" stroke="#ffffff"></path><path d="M825 938.1L962 1026.7L1015 944.1Z" fill="#251d55" stroke="#ffffff"></path><path d="M1015 944.1L962 1026.7L1123 935.1Z" fill="#8896b5" stroke="#ffffff"></path><path d="M825 938.1L1015 944.1L974 822.5Z" fill="#707da3" stroke="#ffffff"></path><path d="M1950 331.8L1797 219.2L1758 352.8Z" fill="#bdc9da" stroke="#ffffff"></path><path d="M1615 223.2L1597 133.6L1483 194.2Z" fill="#bdc9da" stroke="#ffffff"></path><path d="M1866 1165.3L2000 1068.7L1902 1036.1Z" fill="#8896b5" stroke="#ffffff"></path><path d="M1797 219.2L1597 133.6L1615 223.2Z" fill="#707da3" stroke="#ffffff"></path><path d="M2074 431.8L1950 331.8L1945 364.2Z" fill="#707da3" stroke="#ffffff"></path><path d="M1945 364.2L1950 331.8L1758 352.8Z" fill="#707da3" stroke="#ffffff"></path><path d="M2194 765.5L2137 716.9L2008 867.5Z" fill="#353469" stroke="#ffffff"></path><path d="M2008 867.5L2137 716.9L1874 746.5Z" fill="#707da3" stroke="#ffffff"></path><path d="M1987 560.3L2074 431.8L1945 364.2Z" fill="#8896b5" stroke="#ffffff"></path><path d="M884 478.3L966 759.9L1149 499.3Z" fill="#bdc9da" stroke="#ffffff"></path><path d="M801 880.5L825 938.1L974 822.5Z" fill="#dbe3ec" stroke="#ffffff"></path><path d="M990 407.8L884 478.3L1149 499.3Z" fill="#353469" stroke="#ffffff"></path><path d="M1866 1165.3L1942 1214.3L2000 1068.7Z" fill="#170441" stroke="#ffffff"></path><path d="M1869 1427.8L1866 1165.3L1706 1180.7Z" fill="#5a6490" stroke="#ffffff"></path><path d="M2135 588.3L2074 431.8L1987 560.3Z" fill="#8896b5" stroke="#ffffff"></path><path d="M1158 1207.7L1281 1365.8L1396 1190.3Z" fill="#170441" stroke="#ffffff"></path><path d="M1419 1325.8L1689 1450.8L1424 1313.8Z" fill="#8896b5" stroke="#ffffff"></path><path d="M1191 1354.3L1281 1365.8L1158 1207.7Z" fill="#bdc9da" stroke="#ffffff"></path><path d="M2102 1214.7L2089 1018.1L2000 1068.7Z" fill="#251d55" stroke="#ffffff"></path><path d="M2000 1068.7L2089 1018.1L2008 867.5Z" fill="#251d55" stroke="#ffffff"></path><path d="M2137 716.9L2135 588.3L1987 560.3Z" fill="#251d55" stroke="#ffffff"></path><path d="M1131 1334.3L1191 1354.3L1158 1207.7Z" fill="#170441" stroke="#ffffff"></path><path d="M2002 175.6L1890 181.6L1950 331.8Z" fill="#bdc9da" stroke="#ffffff"></path><path d="M1950 331.8L1890 181.6L1797 219.2Z" fill="#707da3" stroke="#ffffff"></path><path d="M1797 219.2L1679 0L1597 133.6Z" fill="#170441" stroke="#ffffff"></path><path d="M865 1198.3L1105 1313.8L1158 1207.7Z" fill="#bdc9da" stroke="#ffffff"></path><path d="M801 867.5L974 822.5L966 759.9Z" fill="#170441" stroke="#ffffff"></path><path d="M962 1026.7L865 1198.3L1158 1207.7Z" fill="#fbfdff" stroke="#ffffff"></path><path d="M1105 1313.8L1131 1334.3L1158 1207.7Z" fill="#fbfdff" stroke="#ffffff"></path><path d="M1247 56.6L1337 254.2L1381 198.6Z" fill="#a2afc8" stroke="#ffffff"></path><path d="M990 407.8L898 363.8L884 478.3Z" fill="#a2afc8" stroke="#ffffff"></path><path d="M884 478.3L683 502.3L839 662.9Z" fill="#707da3" stroke="#ffffff"></path><path d="M839 662.9L801 867.5L966 759.9Z" fill="#a2afc8" stroke="#ffffff"></path><path d="M801 867.5L801 880.5L974 822.5Z" fill="#353469" stroke="#ffffff"></path><path d="M2089 1018.1L2194 765.5L2008 867.5Z" fill="#707da3" stroke="#ffffff"></path><path d="M2137 716.9L2211 640.3L2135 588.3Z" fill="#a2afc8" stroke="#ffffff"></path><path d="M1438 0L1247 56.6L1420 166.6Z" fill="#353469" stroke="#ffffff"></path><path d="M1420 166.6L1247 56.6L1381 198.6Z" fill="#bdc9da" stroke="#ffffff"></path><path d="M1438 0L1483 194.2L1551 0Z" fill="#474c7d" stroke="#ffffff"></path><path d="M2267 433.8L2137 357.2L2074 431.8Z" fill="#5a6490" stroke="#ffffff"></path><path d="M2194 765.5L2211 640.3L2137 716.9Z" fill="#fbfdff" stroke="#ffffff"></path><path d="M1247 56.6L996 197.2L1282 296.2Z" fill="#353469" stroke="#ffffff"></path><path d="M996 197.2L957 235.2L990 407.8Z" fill="#170441" stroke="#ffffff"></path><path d="M1551 0L1483 194.2L1597 133.6Z" fill="#dbe3ec" stroke="#ffffff"></path><path d="M1679 0L1551 0L1597 133.6Z" fill="#353469" stroke="#ffffff"></path><path d="M1255 1496.4L1419 1325.8L1281 1365.8Z" fill="#fbfdff" stroke="#ffffff"></path><path d="M1549 1540.4L1689 1450.8L1419 1325.8Z" fill="#bdc9da" stroke="#ffffff"></path><path d="M795 1077.7L962 1026.7L825 938.1Z" fill="#251d55" stroke="#ffffff"></path><path d="M795 1077.7L847 1128.7L962 1026.7Z" fill="#bdc9da" stroke="#ffffff"></path><path d="M982 1583.4L1220 1482.4L1131 1334.3Z" fill="#fbfdff" stroke="#ffffff"></path><path d="M2074 431.8L2137 357.2L1950 331.8Z" fill="#474c7d" stroke="#ffffff"></path><path d="M2267 433.8L2074 431.8L2135 588.3Z" fill="#353469" stroke="#ffffff"></path><path d="M2137 357.2L2002 175.6L1950 331.8Z" fill="#170441" stroke="#ffffff"></path><path d="M1791 0L1679 0L1797 219.2Z" fill="#a2afc8" stroke="#ffffff"></path><path d="M1791 0L1797 219.2L1890 181.6Z" fill="#a2afc8" stroke="#ffffff"></path><path d="M2326 928.1L2252 737.9L2194 765.5Z" fill="#8896b5" stroke="#ffffff"></path><path d="M2194 765.5L2252 737.9L2211 640.3Z" fill="#8896b5" stroke="#ffffff"></path><path d="M2211 640.3L2267 433.8L2135 588.3Z" fill="#bdc9da" stroke="#ffffff"></path><path d="M650 981.1L795 1077.7L825 938.1Z" fill="#dbe3ec" stroke="#ffffff"></path><path d="M650 981.1L825 938.1L801 880.5Z" fill="#170441" stroke="#ffffff"></path><path d="M626 1194.3L865 1198.3L847 1128.7Z" fill="#251d55" stroke="#ffffff"></path><path d="M847 1128.7L865 1198.3L962 1026.7Z" fill="#dbe3ec" stroke="#ffffff"></path><path d="M2090 1320.3L2102 1214.7L1942 1214.3Z" fill="#8896b5" stroke="#ffffff"></path><path d="M1942 1214.3L2102 1214.7L2000 1068.7Z" fill="#dbe3ec" stroke="#ffffff"></path><path d="M2089 1018.1L2326 928.1L2194 765.5Z" fill="#5a6490" stroke="#ffffff"></path><path d="M1689 1450.8L1869 1427.8L1706 1180.7Z" fill="#5a6490" stroke="#ffffff"></path><path d="M1131 1334.3L1220 1482.4L1191 1354.3Z" fill="#5a6490" stroke="#ffffff"></path><path d="M1191 1354.3L1220 1482.4L1281 1365.8Z" fill="#dbe3ec" stroke="#ffffff"></path><path d="M982 1583.4L1131 1334.3L1105 1313.8Z" fill="#bdc9da" stroke="#ffffff"></path><path d="M1074 42.6L953 151.6L996 197.2Z" fill="#353469" stroke="#ffffff"></path><path d="M996 197.2L953 151.6L957 235.2Z" fill="#fbfdff" stroke="#ffffff"></path><path d="M957 235.2L780 218.2L898 363.8Z" fill="#474c7d" stroke="#ffffff"></path><path d="M1438 0L1191 0L1247 56.6Z" fill="#353469" stroke="#ffffff"></path><path d="M1247 56.6L1074 42.6L996 197.2Z" fill="#707da3" stroke="#ffffff"></path><path d="M1220 1482.4L1255 1496.4L1281 1365.8Z" fill="#353469" stroke="#ffffff"></path><path d="M2011 0L1791 0L1890 181.6Z" fill="#fbfdff" stroke="#ffffff"></path><path d="M1255 1496.4L1549 1540.4L1419 1325.8Z" fill="#bdc9da" stroke="#ffffff"></path><path d="M1831 1632.4L1963 1479.8L1869 1427.8Z" fill="#fbfdff" stroke="#ffffff"></path><path d="M1146 0L1074 42.6L1247 56.6Z" fill="#a2afc8" stroke="#ffffff"></path><path d="M1191 0L1146 0L1247 56.6Z" fill="#dbe3ec" stroke="#ffffff"></path><path d="M2372 533.3L2267 433.8L2211 640.3Z" fill="#dbe3ec" stroke="#ffffff"></path><path d="M2146 116.6L2011 0L2002 175.6Z" fill="#170441" stroke="#ffffff"></path><path d="M668 351.8L683 502.3L884 478.3Z" fill="#353469" stroke="#ffffff"></path><path d="M839 662.9L644 767.9L801 867.5Z" fill="#bdc9da" stroke="#ffffff"></path><path d="M801 867.5L650 981.1L801 880.5Z" fill="#474c7d" stroke="#ffffff"></path><path d="M668 351.8L884 478.3L898 363.8Z" fill="#fbfdff" stroke="#ffffff"></path><path d="M1869 1427.8L2090 1320.3L1942 1214.3Z" fill="#8896b5" stroke="#ffffff"></path><path d="M2337 936.1L2326 928.1L2316 1045.7Z" fill="#474c7d" stroke="#ffffff"></path><path d="M655 562.3L644 767.9L839 662.9Z" fill="#fbfdff" stroke="#ffffff"></path><path d="M683 502.3L655 562.3L839 662.9Z" fill="#a2afc8" stroke="#ffffff"></path><path d="M2326 928.1L2089 1018.1L2316 1045.7Z" fill="#170441" stroke="#ffffff"></path><path d="M2252 737.9L2372 533.3L2211 640.3Z" fill="#707da3" stroke="#ffffff"></path><path d="M2316 1045.7L2089 1018.1L2249 1233.3Z" fill="#707da3" stroke="#ffffff"></path><path d="M2326 928.1L2418 849.5L2252 737.9Z" fill="#a2afc8" stroke="#ffffff"></path><path d="M644 767.9L650 981.1L801 867.5Z" fill="#251d55" stroke="#ffffff"></path><path d="M735 1364.3L809 1350.8L865 1198.3Z" fill="#707da3" stroke="#ffffff"></path><path d="M764 148.6L780 218.2L953 151.6Z" fill="#251d55" stroke="#ffffff"></path><path d="M953 151.6L780 218.2L957 235.2Z" fill="#fbfdff" stroke="#ffffff"></path><path d="M683 502.3L583 406.8L655 562.3Z" fill="#474c7d" stroke="#ffffff"></path><path d="M515 699.9L607 778.5L644 767.9Z" fill="#353469" stroke="#ffffff"></path><path d="M644 767.9L607 778.5L650 981.1Z" fill="#5a6490" stroke="#ffffff"></path><path d="M1831 1632.4L1869 1427.8L1689 1450.8Z" fill="#5a6490" stroke="#ffffff"></path><path d="M1869 1427.8L1963 1479.8L2090 1320.3Z" fill="#474c7d" stroke="#ffffff"></path><path d="M2249 1233.3L2089 1018.1L2102 1214.7Z" fill="#8896b5" stroke="#ffffff"></path><path d="M2150 1348.8L2102 1214.7L2090 1320.3Z" fill="#dbe3ec" stroke="#ffffff"></path><path d="M1424 1687L1625 1619.4L1549 1540.4Z" fill="#474c7d" stroke="#ffffff"></path><path d="M1549 1540.4L1625 1619.4L1689 1450.8Z" fill="#353469" stroke="#ffffff"></path><path d="M436 829.5L632 999.1L650 981.1Z" fill="#353469" stroke="#ffffff"></path><path d="M650 981.1L632 999.1L795 1077.7Z" fill="#a2afc8" stroke="#ffffff"></path><path d="M1963 1479.8L2150 1348.8L2090 1320.3Z" fill="#474c7d" stroke="#ffffff"></path><path d="M2146 116.6L2002 175.6L2137 357.2Z" fill="#474c7d" stroke="#ffffff"></path><path d="M2002 175.6L2011 0L1890 181.6Z" fill="#474c7d" stroke="#ffffff"></path><path d="M2271 234.2L2146 116.6L2137 357.2Z" fill="#707da3" stroke="#ffffff"></path><path d="M780 218.2L668 351.8L898 363.8Z" fill="#353469" stroke="#ffffff"></path><path d="M655 562.3L515 699.9L644 767.9Z" fill="#5a6490" stroke="#ffffff"></path><path d="M2437 748.9L2372 533.3L2252 737.9Z" fill="#bdc9da" stroke="#ffffff"></path><path d="M2267 433.8L2271 234.2L2137 357.2Z" fill="#8896b5" stroke="#ffffff"></path><path d="M2150 1348.8L2249 1233.3L2102 1214.7Z" fill="#dbe3ec" stroke="#ffffff"></path><path d="M2372 533.3L2351 443.8L2267 433.8Z" fill="#dbe3ec" stroke="#ffffff"></path><path d="M626 1194.3L847 1128.7L795 1077.7Z" fill="#170441" stroke="#ffffff"></path><path d="M865 1198.3L860 1420.8L1105 1313.8Z" fill="#dbe3ec" stroke="#ffffff"></path><path d="M1283 1687L1424 1687L1255 1496.4Z" fill="#bdc9da" stroke="#ffffff"></path><path d="M1255 1496.4L1424 1687L1549 1540.4Z" fill="#dbe3ec" stroke="#ffffff"></path><path d="M809 1350.8L860 1420.8L865 1198.3Z" fill="#bdc9da" stroke="#ffffff"></path><path d="M2351 443.8L2271 234.2L2267 433.8Z" fill="#170441" stroke="#ffffff"></path><path d="M847 0L764 148.6L953 151.6Z" fill="#170441" stroke="#ffffff"></path><path d="M780 218.2L647 172.6L668 351.8Z" fill="#dbe3ec" stroke="#ffffff"></path><path d="M847 0L953 151.6L1074 42.6Z" fill="#a2afc8" stroke="#ffffff"></path><path d="M2593 1003.1L2418 849.5L2337 936.1Z" fill="#a2afc8" stroke="#ffffff"></path><path d="M2337 936.1L2418 849.5L2326 928.1Z" fill="#bdc9da" stroke="#ffffff"></path><path d="M2498 780.5L2418 849.5L2593 1003.1Z" fill="#a2afc8" stroke="#ffffff"></path><path d="M2418 849.5L2437 748.9L2252 737.9Z" fill="#353469" stroke="#ffffff"></path><path d="M2590 369.8L2482 316.2L2351 443.8Z" fill="#474c7d" stroke="#ffffff"></path><path d="M2150 1348.8L2192 1373.8L2249 1233.3Z" fill="#8896b5" stroke="#ffffff"></path><path d="M2249 1233.3L2442 1136.7L2316 1045.7Z" fill="#251d55" stroke="#ffffff"></path><path d="M2191 1518.4L2192 1373.8L2150 1348.8Z" fill="#bdc9da" stroke="#ffffff"></path><path d="M1283 1687L1255 1496.4L1261 1687Z" fill="#170441" stroke="#ffffff"></path><path d="M1625 1619.4L1831 1632.4L1689 1450.8Z" fill="#dbe3ec" stroke="#ffffff"></path><path d="M1963 1479.8L2191 1518.4L2150 1348.8Z" fill="#707da3" stroke="#ffffff"></path><path d="M1735 1687L1831 1632.4L1625 1619.4Z" fill="#a2afc8" stroke="#ffffff"></path><path d="M546 260.2L583 406.8L668 351.8Z" fill="#474c7d" stroke="#ffffff"></path><path d="M668 351.8L583 406.8L683 502.3Z" fill="#a2afc8" stroke="#ffffff"></path><path d="M1261 1687L1255 1496.4L1220 1482.4Z" fill="#dbe3ec" stroke="#ffffff"></path><path d="M365 483.3L515 699.9L655 562.3Z" fill="#dbe3ec" stroke="#ffffff"></path><path d="M488 1079.1L506 1090.7L632 999.1Z" fill="#dbe3ec" stroke="#ffffff"></path><path d="M506 1090.7L626 1194.3L632 999.1Z" fill="#a2afc8" stroke="#ffffff"></path><path d="M632 999.1L626 1194.3L795 1077.7Z" fill="#a2afc8" stroke="#ffffff"></path><path d="M809 1350.8L735 1364.3L860 1420.8Z" fill="#bdc9da" stroke="#ffffff"></path><path d="M1146 0L847 0L1074 42.6Z" fill="#8896b5" stroke="#ffffff"></path><path d="M764 148.6L647 172.6L780 218.2Z" fill="#fbfdff" stroke="#ffffff"></path><path d="M1116 1687L1261 1687L1220 1482.4Z" fill="#a2afc8" stroke="#ffffff"></path><path d="M847 0L845 0L764 148.6Z" fill="#a2afc8" stroke="#ffffff"></path><path d="M626 1194.3L735 1364.3L865 1198.3Z" fill="#8896b5" stroke="#ffffff"></path><path d="M951 1571.4L982 1583.4L1105 1313.8Z" fill="#a2afc8" stroke="#ffffff"></path><path d="M1424 1687L1735 1687L1625 1619.4Z" fill="#a2afc8" stroke="#ffffff"></path><path d="M1735 1687L1742 1687L1831 1632.4Z" fill="#251d55" stroke="#ffffff"></path><path d="M951 1571.4L1105 1313.8L860 1420.8Z" fill="#a2afc8" stroke="#ffffff"></path><path d="M2289 0L2144 0L2146 116.6Z" fill="#a2afc8" stroke="#ffffff"></path><path d="M2146 116.6L2144 0L2011 0Z" fill="#251d55" stroke="#ffffff"></path><path d="M751 1606.4L951 1571.4L860 1420.8Z" fill="#fbfdff" stroke="#ffffff"></path><path d="M2432 1379.8L2328 1281.3L2389 1473.4Z" fill="#5a6490" stroke="#ffffff"></path><path d="M2192 1373.8L2328 1281.3L2249 1233.3Z" fill="#fbfdff" stroke="#ffffff"></path><path d="M1979 1687L1978 1618.4L1831 1632.4Z" fill="#353469" stroke="#ffffff"></path><path d="M1831 1632.4L1978 1618.4L1963 1479.8Z" fill="#707da3" stroke="#ffffff"></path><path d="M2442 1136.7L2337 936.1L2316 1045.7Z" fill="#251d55" stroke="#ffffff"></path><path d="M2418 849.5L2498 780.5L2437 748.9Z" fill="#fbfdff" stroke="#ffffff"></path><path d="M2437 748.9L2570 695.9L2372 533.3Z" fill="#251d55" stroke="#ffffff"></path><path d="M2351 443.8L2482 316.2L2271 234.2Z" fill="#dbe3ec" stroke="#ffffff"></path><path d="M584 0L647 172.6L764 148.6Z" fill="#8896b5" stroke="#ffffff"></path><path d="M853 1687L1116 1687L982 1583.4Z" fill="#bdc9da" stroke="#ffffff"></path><path d="M982 1583.4L1116 1687L1220 1482.4Z" fill="#dbe3ec" stroke="#ffffff"></path><path d="M2328 1281.3L2442 1136.7L2249 1233.3Z" fill="#251d55" stroke="#ffffff"></path><path d="M626 1194.3L620 1359.8L735 1364.3Z" fill="#170441" stroke="#ffffff"></path><path d="M436 829.5L650 981.1L607 778.5Z" fill="#707da3" stroke="#ffffff"></path><path d="M1978 1618.4L2191 1518.4L1963 1479.8Z" fill="#bdc9da" stroke="#ffffff"></path><path d="M2328 1281.3L2505 1356.8L2442 1136.7Z" fill="#fbfdff" stroke="#ffffff"></path><path d="M470 176.6L546 260.2L647 172.6Z" fill="#353469" stroke="#ffffff"></path><path d="M647 172.6L546 260.2L668 351.8Z" fill="#fbfdff" stroke="#ffffff"></path><path d="M583 406.8L457 394.8L655 562.3Z" fill="#8896b5" stroke="#ffffff"></path><path d="M364 658.3L436 829.5L515 699.9Z" fill="#bdc9da" stroke="#ffffff"></path><path d="M515 699.9L436 829.5L607 778.5Z" fill="#dbe3ec" stroke="#ffffff"></path><path d="M436 829.5L488 1079.1L632 999.1Z" fill="#a2afc8" stroke="#ffffff"></path><path d="M396 1329.3L620 1359.8L626 1194.3Z" fill="#353469" stroke="#ffffff"></path><path d="M380 1203.7L626 1194.3L506 1090.7Z" fill="#353469" stroke="#ffffff"></path><path d="M735 1364.3L751 1606.4L860 1420.8Z" fill="#251d55" stroke="#ffffff"></path><path d="M951 1571.4L853 1687L982 1583.4Z" fill="#fbfdff" stroke="#ffffff"></path><path d="M1742 1687L1979 1687L1831 1632.4Z" fill="#fbfdff" stroke="#ffffff"></path><path d="M1978 1618.4L2188 1622.4L2191 1518.4Z" fill="#a2afc8" stroke="#ffffff"></path><path d="M2590 369.8L2351 443.8L2372 533.3Z" fill="#bdc9da" stroke="#ffffff"></path><path d="M2348 62.6L2289 0L2146 116.6Z" fill="#251d55" stroke="#ffffff"></path><path d="M2658 741.9L2570 695.9L2498 780.5Z" fill="#bdc9da" stroke="#ffffff"></path><path d="M2498 780.5L2570 695.9L2437 748.9Z" fill="#fbfdff" stroke="#ffffff"></path><path d="M456 371.2L457 394.8L583 406.8Z" fill="#bdc9da" stroke="#ffffff"></path><path d="M2348 62.6L2146 116.6L2271 234.2Z" fill="#8896b5" stroke="#ffffff"></path><path d="M2497 182.6L2348 62.6L2271 234.2Z" fill="#5a6490" stroke="#ffffff"></path><path d="M546 260.2L456 371.2L583 406.8Z" fill="#170441" stroke="#ffffff"></path><path d="M365 483.3L364 658.3L515 699.9Z" fill="#707da3" stroke="#ffffff"></path><path d="M365 483.3L655 562.3L457 394.8Z" fill="#fbfdff" stroke="#ffffff"></path><path d="M436 829.5L316 927.1L488 1079.1Z" fill="#a2afc8" stroke="#ffffff"></path><path d="M2109 1687L2188 1622.4L1978 1618.4Z" fill="#dbe3ec" stroke="#ffffff"></path><path d="M2389 1473.4L2328 1281.3L2192 1373.8Z" fill="#a2afc8" stroke="#ffffff"></path><path d="M1979 1687L2109 1687L1978 1618.4Z" fill="#5a6490" stroke="#ffffff"></path><path d="M2577 1112.7L2593 1003.1L2442 1136.7Z" fill="#170441" stroke="#ffffff"></path><path d="M2442 1136.7L2593 1003.1L2337 936.1Z" fill="#251d55" stroke="#ffffff"></path><path d="M620 1359.8L751 1606.4L735 1364.3Z" fill="#a2afc8" stroke="#ffffff"></path><path d="M2389 1473.4L2192 1373.8L2191 1518.4Z" fill="#707da3" stroke="#ffffff"></path><path d="M751 1606.4L853 1687L951 1571.4Z" fill="#170441" stroke="#ffffff"></path><path d="M2570 695.9L2621 576.3L2372 533.3Z" fill="#bdc9da" stroke="#ffffff"></path><path d="M2482 316.2L2497 182.6L2271 234.2Z" fill="#353469" stroke="#ffffff"></path><path d="M2658 741.9L2621 576.3L2570 695.9Z" fill="#fbfdff" stroke="#ffffff"></path><path d="M456 371.2L365 483.3L457 394.8Z" fill="#353469" stroke="#ffffff"></path><path d="M272 300.2L365 483.3L456 371.2Z" fill="#8896b5" stroke="#ffffff"></path><path d="M2587 203.2L2497 182.6L2482 316.2Z" fill="#a2afc8" stroke="#ffffff"></path><path d="M2348 62.6L2424 0L2289 0Z" fill="#353469" stroke="#ffffff"></path><path d="M2586 1185.3L2577 1112.7L2442 1136.7Z" fill="#474c7d" stroke="#ffffff"></path><path d="M2621 576.3L2590 369.8L2372 533.3Z" fill="#251d55" stroke="#ffffff"></path><path d="M584 0L470 176.6L647 172.6Z" fill="#bdc9da" stroke="#ffffff"></path><path d="M546 260.2L470 176.6L456 371.2Z" fill="#251d55" stroke="#ffffff"></path><path d="M2298 1687L2389 1473.4L2191 1518.4Z" fill="#5a6490" stroke="#ffffff"></path><path d="M2600 1246.3L2586 1185.3L2442 1136.7Z" fill="#353469" stroke="#ffffff"></path><path d="M2298 1687L2191 1518.4L2188 1622.4Z" fill="#707da3" stroke="#ffffff"></path><path d="M845 0L584 0L764 148.6Z" fill="#fbfdff" stroke="#ffffff"></path><path d="M2697 851.5L2498 780.5L2593 1003.1Z" fill="#bdc9da" stroke="#ffffff"></path><path d="M2697 851.5L2658 741.9L2498 780.5Z" fill="#a2afc8" stroke="#ffffff"></path><path d="M2654 371.8L2611 256.2L2590 369.8Z" fill="#bdc9da" stroke="#ffffff"></path><path d="M2505 1356.8L2328 1281.3L2432 1379.8Z" fill="#474c7d" stroke="#ffffff"></path><path d="M2737 913.1L2697 851.5L2593 1003.1Z" fill="#707da3" stroke="#ffffff"></path><path d="M298 853.5L436 829.5L264 713.9Z" fill="#707da3" stroke="#ffffff"></path><path d="M298 853.5L316 927.1L436 829.5Z" fill="#170441" stroke="#ffffff"></path><path d="M488 1079.1L380 1203.7L506 1090.7Z" fill="#251d55" stroke="#ffffff"></path><path d="M523 1498.4L722 1687L751 1606.4Z" fill="#dbe3ec" stroke="#ffffff"></path><path d="M2389 1473.4L2505 1356.8L2432 1379.8Z" fill="#251d55" stroke="#ffffff"></path><path d="M2539 48.6L2424 0L2497 182.6Z" fill="#dbe3ec" stroke="#ffffff"></path><path d="M2497 182.6L2424 0L2348 62.6Z" fill="#353469" stroke="#ffffff"></path><path d="M264 713.9L436 829.5L364 658.3Z" fill="#251d55" stroke="#ffffff"></path><path d="M396 1329.3L380 1203.7L277 1306.3Z" fill="#707da3" stroke="#ffffff"></path><path d="M316 927.1L380 1203.7L488 1079.1Z" fill="#a2afc8" stroke="#ffffff"></path><path d="M2737 913.1L2593 1003.1L2689 1141.7Z" fill="#dbe3ec" stroke="#ffffff"></path><path d="M2722 482.3L2590 369.8L2621 576.3Z" fill="#707da3" stroke="#ffffff"></path><path d="M523 1498.4L751 1606.4L620 1359.8Z" fill="#fbfdff" stroke="#ffffff"></path><path d="M751 1606.4L722 1687L853 1687Z" fill="#5a6490" stroke="#ffffff"></path><path d="M2654 371.8L2590 369.8L2722 482.3Z" fill="#707da3" stroke="#ffffff"></path><path d="M2590 369.8L2611 256.2L2482 316.2Z" fill="#474c7d" stroke="#ffffff"></path><path d="M2611 256.2L2587 203.2L2482 316.2Z" fill="#170441" stroke="#ffffff"></path><path d="M2722 482.3L2900 626.9L2831 491.3Z" fill="#353469" stroke="#ffffff"></path><path d="M2505 1356.8L2600 1246.3L2442 1136.7Z" fill="#707da3" stroke="#ffffff"></path><path d="M2689 1141.7L2593 1003.1L2577 1112.7Z" fill="#251d55" stroke="#ffffff"></path><path d="M247 633.9L364 658.3L365 483.3Z" fill="#8896b5" stroke="#ffffff"></path><path d="M247 633.9L264 713.9L364 658.3Z" fill="#bdc9da" stroke="#ffffff"></path><path d="M261 1184.7L380 1203.7L316 927.1Z" fill="#707da3" stroke="#ffffff"></path><path d="M584 0L509 0L470 176.6Z" fill="#fbfdff" stroke="#ffffff"></path><path d="M146 476.3L247 633.9L365 483.3Z" fill="#8896b5" stroke="#ffffff"></path><path d="M443 1425.8L523 1498.4L620 1359.8Z" fill="#bdc9da" stroke="#ffffff"></path><path d="M261 1184.7L316 927.1L192 960.1Z" fill="#dbe3ec" stroke="#ffffff"></path><path d="M380 1203.7L396 1329.3L626 1194.3Z" fill="#dbe3ec" stroke="#ffffff"></path><path d="M349 191.6L456 371.2L470 176.6Z" fill="#5a6490" stroke="#ffffff"></path><path d="M2389 1473.4L2615 1468.4L2505 1356.8Z" fill="#dbe3ec" stroke="#ffffff"></path><path d="M2505 1356.8L2615 1468.4L2600 1246.3Z" fill="#5a6490" stroke="#ffffff"></path><path d="M2109 1687L2298 1687L2188 1622.4Z" fill="#a2afc8" stroke="#ffffff"></path><path d="M396 1329.3L443 1425.8L620 1359.8Z" fill="#353469" stroke="#ffffff"></path><path d="M523 1498.4L503 1687L722 1687Z" fill="#707da3" stroke="#ffffff"></path><path d="M2587 203.2L2539 48.6L2497 182.6Z" fill="#fbfdff" stroke="#ffffff"></path><path d="M2611 0L2539 48.6L2638 0Z" fill="#bdc9da" stroke="#ffffff"></path><path d="M2658 209.6L2587 203.2L2611 256.2Z" fill="#353469" stroke="#ffffff"></path><path d="M2722 482.3L2621 576.3L2900 626.9Z" fill="#251d55" stroke="#ffffff"></path><path d="M2773 328.8L2658 209.6L2611 256.2Z" fill="#dbe3ec" stroke="#ffffff"></path><path d="M2689 1141.7L2577 1112.7L2586 1185.3Z" fill="#170441" stroke="#ffffff"></path><path d="M2900 626.9L2621 576.3L2658 741.9Z" fill="#a2afc8" stroke="#ffffff"></path><path d="M291 0L349 191.6L470 176.6Z" fill="#353469" stroke="#ffffff"></path><path d="M2796 1351.3L2689 1141.7L2600 1246.3Z" fill="#fbfdff" stroke="#ffffff"></path><path d="M2600 1246.3L2689 1141.7L2586 1185.3Z" fill="#dbe3ec" stroke="#ffffff"></path><path d="M2773 328.8L2611 256.2L2654 371.8Z" fill="#707da3" stroke="#ffffff"></path><path d="M349 191.6L272 300.2L456 371.2Z" fill="#8896b5" stroke="#ffffff"></path><path d="M346 1403.8L442 1495.4L443 1425.8Z" fill="#fbfdff" stroke="#ffffff"></path><path d="M443 1425.8L442 1495.4L523 1498.4Z" fill="#bdc9da" stroke="#ffffff"></path><path d="M192 960.1L316 927.1L298 853.5Z" fill="#8896b5" stroke="#ffffff"></path><path d="M396 1329.3L346 1403.8L443 1425.8Z" fill="#474c7d" stroke="#ffffff"></path><path d="M192 960.1L298 853.5L98 764.5Z" fill="#707da3" stroke="#ffffff"></path><path d="M98 764.5L264 713.9L247 633.9Z" fill="#fbfdff" stroke="#ffffff"></path><path d="M98 764.5L298 853.5L264 713.9Z" fill="#251d55" stroke="#ffffff"></path><path d="M2298 1687L2399 1687L2389 1473.4Z" fill="#5a6490" stroke="#ffffff"></path><path d="M277 1306.3L346 1403.8L396 1329.3Z" fill="#a2afc8" stroke="#ffffff"></path><path d="M240 44.6L216 321.8L272 300.2Z" fill="#dbe3ec" stroke="#ffffff"></path><path d="M272 300.2L198 352.2L365 483.3Z" fill="#fbfdff" stroke="#ffffff"></path><path d="M240 44.6L272 300.2L349 191.6Z" fill="#8896b5" stroke="#ffffff"></path><path d="M80 1225.3L277 1306.3L261 1184.7Z" fill="#353469" stroke="#ffffff"></path><path d="M261 1184.7L277 1306.3L380 1203.7Z" fill="#fbfdff" stroke="#ffffff"></path><path d="M2638 0L2539 48.6L2587 203.2Z" fill="#bdc9da" stroke="#ffffff"></path><path d="M2539 48.6L2611 0L2424 0Z" fill="#8896b5" stroke="#ffffff"></path><path d="M2638 0L2587 203.2L2658 209.6Z" fill="#170441" stroke="#ffffff"></path><path d="M2616 1505.4L2615 1468.4L2389 1473.4Z" fill="#474c7d" stroke="#ffffff"></path><path d="M216 321.8L198 352.2L272 300.2Z" fill="#707da3" stroke="#ffffff"></path><path d="M2831 491.3L2773 328.8L2722 482.3Z" fill="#707da3" stroke="#ffffff"></path><path d="M2722 482.3L2773 328.8L2654 371.8Z" fill="#707da3" stroke="#ffffff"></path><path d="M2576 1687L2616 1505.4L2389 1473.4Z" fill="#353469" stroke="#ffffff"></path><path d="M2615 1468.4L2646 1475.8L2600 1246.3Z" fill="#8896b5" stroke="#ffffff"></path><path d="M2658 741.9L2697 851.5L2912 836.5Z" fill="#170441" stroke="#ffffff"></path><path d="M2900 626.9L2658 741.9L2912 836.5Z" fill="#5a6490" stroke="#ffffff"></path><path d="M2697 851.5L2737 913.1L2912 836.5Z" fill="#251d55" stroke="#ffffff"></path><path d="M2756 0L2638 0L2658 209.6Z" fill="#dbe3ec" stroke="#ffffff"></path><path d="M198 352.2L146 476.3L365 483.3Z" fill="#707da3" stroke="#ffffff"></path><path d="M442 1495.4L503 1687L523 1498.4Z" fill="#707da3" stroke="#ffffff"></path><path d="M432 1687L503 1687L442 1495.4Z" fill="#707da3" stroke="#ffffff"></path><path d="M297 1487.4L442 1495.4L346 1403.8Z" fill="#5a6490" stroke="#ffffff"></path><path d="M2616 1505.4L2646 1475.8L2615 1468.4Z" fill="#251d55" stroke="#ffffff"></path><path d="M0 712.9L98 764.5L0 623.3Z" fill="#353469" stroke="#ffffff"></path><path d="M192 960.1L61 1027.7L261 1184.7Z" fill="#5a6490" stroke="#ffffff"></path><path d="M509 0L291 0L470 176.6Z" fill="#707da3" stroke="#ffffff"></path><path d="M216 321.8L111 370.8L198 352.2Z" fill="#5a6490" stroke="#ffffff"></path><path d="M198 352.2L111 370.8L146 476.3Z" fill="#a2afc8" stroke="#ffffff"></path><path d="M56 1380.8L297 1487.4L277 1306.3Z" fill="#8896b5" stroke="#ffffff"></path><path d="M277 1306.3L297 1487.4L346 1403.8Z" fill="#707da3" stroke="#ffffff"></path><path d="M2879 1030.1L2737 913.1L2689 1141.7Z" fill="#5a6490" stroke="#ffffff"></path><path d="M2913 223.6L2658 209.6L2773 328.8Z" fill="#bdc9da" stroke="#ffffff"></path><path d="M2913 223.6L2756 0L2658 209.6Z" fill="#353469" stroke="#ffffff"></path><path d="M321 1687L432 1687L442 1495.4Z" fill="#353469" stroke="#ffffff"></path><path d="M2922 1138.7L2879 1030.1L2689 1141.7Z" fill="#bdc9da" stroke="#ffffff"></path><path d="M0 299.2L111 370.8L216 321.8Z" fill="#707da3" stroke="#ffffff"></path><path d="M0 712.9L0 757.5L98 764.5Z" fill="#170441" stroke="#ffffff"></path><path d="M291 0L240 44.6L349 191.6Z" fill="#a2afc8" stroke="#ffffff"></path><path d="M2879 1030.1L2912 836.5L2737 913.1Z" fill="#474c7d" stroke="#ffffff"></path><path d="M2711 1687L2769 1431.8L2646 1475.8Z" fill="#fbfdff" stroke="#ffffff"></path><path d="M2646 1475.8L2796 1351.3L2600 1246.3Z" fill="#5a6490" stroke="#ffffff"></path><path d="M2399 1687L2576 1687L2389 1473.4Z" fill="#8896b5" stroke="#ffffff"></path><path d="M2769 1431.8L2796 1351.3L2646 1475.8Z" fill="#8896b5" stroke="#ffffff"></path><path d="M0 963.1L192 960.1L98 764.5Z" fill="#dbe3ec" stroke="#ffffff"></path><path d="M0 963.1L61 1027.7L192 960.1Z" fill="#a2afc8" stroke="#ffffff"></path><path d="M2711 1687L2646 1475.8L2616 1505.4Z" fill="#474c7d" stroke="#ffffff"></path><path d="M2910 320.2L2773 328.8L2831 491.3Z" fill="#707da3" stroke="#ffffff"></path><path d="M3000 570.3L2831 491.3L2900 626.9Z" fill="#bdc9da" stroke="#ffffff"></path><path d="M3000 373.8L2910 320.2L2831 491.3Z" fill="#170441" stroke="#ffffff"></path><path d="M98 764.5L247 633.9L0 623.3Z" fill="#fbfdff" stroke="#ffffff"></path><path d="M0 623.3L247 633.9L146 476.3Z" fill="#707da3" stroke="#ffffff"></path><path d="M3000 1059.1L2922 1138.7L3000 1181.7Z" fill="#dbe3ec" stroke="#ffffff"></path><path d="M2796 1351.3L2922 1138.7L2689 1141.7Z" fill="#353469" stroke="#ffffff"></path><path d="M2879 1030.1L3000 880.5L2912 836.5Z" fill="#a2afc8" stroke="#ffffff"></path><path d="M2912 836.5L3000 689.9L2900 626.9Z" fill="#dbe3ec" stroke="#ffffff"></path><path d="M291 0L193 0L240 44.6Z" fill="#fbfdff" stroke="#ffffff"></path><path d="M0 176.6L0 299.2L216 321.8Z" fill="#353469" stroke="#ffffff"></path><path d="M0 432.8L0 623.3L146 476.3Z" fill="#5a6490" stroke="#ffffff"></path><path d="M61 1027.7L80 1225.3L261 1184.7Z" fill="#fbfdff" stroke="#ffffff"></path><path d="M297 1487.4L321 1687L442 1495.4Z" fill="#707da3" stroke="#ffffff"></path><path d="M0 1087.7L80 1225.3L61 1027.7Z" fill="#a2afc8" stroke="#ffffff"></path><path d="M0 432.8L146 476.3L111 370.8Z" fill="#fbfdff" stroke="#ffffff"></path><path d="M237 1637.4L321 1687L297 1487.4Z" fill="#5a6490" stroke="#ffffff"></path><path d="M0 757.5L0 963.1L98 764.5Z" fill="#fbfdff" stroke="#ffffff"></path><path d="M3000 880.5L3000 689.9L2912 836.5Z" fill="#170441" stroke="#ffffff"></path><path d="M3000 320.2L2913 223.6L2910 320.2Z" fill="#fbfdff" stroke="#ffffff"></path><path d="M2910 320.2L2913 223.6L2773 328.8Z" fill="#5a6490" stroke="#ffffff"></path><path d="M0 299.2L0 432.8L111 370.8Z" fill="#251d55" stroke="#ffffff"></path><path d="M3000 1059.1L3000 880.5L2879 1030.1Z" fill="#5a6490" stroke="#ffffff"></path><path d="M3000 689.9L3000 570.3L2900 626.9Z" fill="#a2afc8" stroke="#ffffff"></path><path d="M0 963.1L0 1087.7L61 1027.7Z" fill="#fbfdff" stroke="#ffffff"></path><path d="M0 1459.4L237 1637.4L297 1487.4Z" fill="#170441" stroke="#ffffff"></path><path d="M56 1380.8L277 1306.3L80 1225.3Z" fill="#bdc9da" stroke="#ffffff"></path><path d="M3000 1181.7L2922 1138.7L3000 1219.3Z" fill="#707da3" stroke="#ffffff"></path><path d="M2922 1138.7L3000 1059.1L2879 1030.1Z" fill="#bdc9da" stroke="#ffffff"></path><path d="M2576 1687L2711 1687L2616 1505.4Z" fill="#a2afc8" stroke="#ffffff"></path><path d="M2769 1431.8L2854 1481.4L2796 1351.3Z" fill="#a2afc8" stroke="#ffffff"></path><path d="M0 1087.7L0 1170.3L80 1225.3Z" fill="#dbe3ec" stroke="#ffffff"></path><path d="M0 176.6L216 321.8L240 44.6Z" fill="#251d55" stroke="#ffffff"></path><path d="M3000 570.3L3000 373.8L2831 491.3Z" fill="#251d55" stroke="#ffffff"></path><path d="M2711 1687L2854 1481.4L2769 1431.8Z" fill="#a2afc8" stroke="#ffffff"></path><path d="M3000 373.8L3000 320.2L2910 320.2Z" fill="#474c7d" stroke="#ffffff"></path><path d="M2913 223.6L3000 152.6L2756 0Z" fill="#5a6490" stroke="#ffffff"></path><path d="M0 1341.8L56 1380.8L80 1225.3Z" fill="#170441" stroke="#ffffff"></path><path d="M3000 1219.3L2922 1138.7L2796 1351.3Z" fill="#8896b5" stroke="#ffffff"></path><path d="M3000 1401.8L3000 1219.3L2796 1351.3Z" fill="#fbfdff" stroke="#ffffff"></path><path d="M193 0L0 176.6L240 44.6Z" fill="#a2afc8" stroke="#ffffff"></path><path d="M0 1170.3L0 1341.8L80 1225.3Z" fill="#8896b5" stroke="#ffffff"></path><path d="M0 1459.4L171 1687L237 1637.4Z" fill="#8896b5" stroke="#ffffff"></path><path d="M3000 320.2L3000 152.6L2913 223.6Z" fill="#251d55" stroke="#ffffff"></path><path d="M0 1459.4L297 1487.4L56 1380.8Z" fill="#251d55" stroke="#ffffff"></path><path d="M237 1637.4L171 1687L321 1687Z" fill="#474c7d" stroke="#ffffff"></path><path d="M3000 1530.4L3000 1401.8L2854 1481.4Z" fill="#353469" stroke="#ffffff"></path><path d="M2854 1481.4L3000 1401.8L2796 1351.3Z" fill="#251d55" stroke="#ffffff"></path><path d="M0 1341.8L0 1459.4L56 1380.8Z" fill="#170441" stroke="#ffffff"></path><path d="M193 0L0 0L0 176.6Z" fill="#a2afc8" stroke="#ffffff"></path><path d="M3000 152.6L3000 0L2756 0Z" fill="#707da3" stroke="#ffffff"></path><path d="M2936 1687L3000 1530.4L2854 1481.4Z" fill="#353469" stroke="#ffffff"></path><path d="M2711 1687L2936 1687L2854 1481.4Z" fill="#8896b5" stroke="#ffffff"></path><path d="M0 1459.4L0 1687L171 1687Z" fill="#a2afc8" stroke="#ffffff"></path><path d="M2936 1687L3000 1687L3000 1530.4Z" fill="#707da3" stroke="#ffffff"></path></g></svg>